<svg width="500" height="385" viewBox="0 0 500 385" fill="none" xmlns="http://www.w3.org/2000/svg">
<g clip-path="url(#clip0)">
<path d="M115.13 265.878L153.841 205.001L67.1452 149.872L22.373 220.28L94.0817 265.878H115.13Z" fill="#6C63FF"/>
<path d="M169.988 284.869H74.0977V265.567H169.988V284.869ZM75.343 283.624H168.743V266.812H75.343V283.624Z" fill="#3F3D56"/>
<path d="M158.156 281.445C161.595 281.445 164.383 278.657 164.383 275.218C164.383 271.779 161.595 268.991 158.156 268.991C154.717 268.991 151.93 271.779 151.93 275.218C151.93 278.657 154.717 281.445 158.156 281.445Z" fill="#6C63FF"/>
<path d="M140.723 281.445C144.162 281.445 146.949 278.657 146.949 275.218C146.949 271.779 144.162 268.991 140.723 268.991C137.284 268.991 134.496 271.779 134.496 275.218C134.496 278.657 137.284 281.445 140.723 281.445Z" fill="#6C63FF"/>
<path d="M123.287 281.445C126.726 281.445 129.514 278.657 129.514 275.218C129.514 271.779 126.726 268.991 123.287 268.991C119.848 268.991 117.061 271.779 117.061 275.218C117.061 278.657 119.848 281.445 123.287 281.445Z" fill="#6C63FF"/>
<path d="M105.854 281.445C109.292 281.445 112.08 278.657 112.08 275.218C112.08 271.779 109.292 268.991 105.854 268.991C102.415 268.991 99.627 271.779 99.627 275.218C99.627 278.657 102.415 281.445 105.854 281.445Z" fill="#6C63FF"/>
<path d="M88.4181 281.445C91.8569 281.445 94.6447 278.657 94.6447 275.218C94.6447 271.779 91.8569 268.991 88.4181 268.991C84.9792 268.991 82.1914 271.779 82.1914 275.218C82.1914 278.657 84.9792 281.445 88.4181 281.445Z" fill="#6C63FF"/>
<path d="M283.936 70.3612V23.0386H307.597V0H191.781V115.816H290.785V104.492C290.785 102.381 291.201 100.291 292.009 98.341C292.816 96.3909 294 94.6189 295.493 93.1263C296.985 91.6337 298.757 90.4498 300.708 89.642C302.658 88.8342 304.748 88.4184 306.859 88.4184H307.597V70.3612H283.936Z" fill="#6C63FF"/>
<path d="M412.205 298.879H334.994V315.068H412.205V298.879Z" fill="#6C63FF"/>
<path d="M429.016 219.178H315.691V234.122H429.016V219.178Z" fill="#F0F0F0"/>
<path d="M484.433 382.939H0V384.184H484.433V382.939Z" fill="#3F3D56"/>
<path d="M448.435 384.184H306.859C302.432 384.179 298.188 382.419 295.058 379.288C291.928 376.158 290.167 371.915 290.162 367.488V104.492C290.167 100.066 291.928 95.8217 295.058 92.6916C298.188 89.5615 302.432 87.8008 306.859 87.7958H448.435C452.861 87.8008 457.105 89.5615 460.235 92.6916C463.365 95.8217 465.126 100.066 465.131 104.492V367.488C465.126 371.915 463.365 376.158 460.235 379.288C457.105 382.419 452.861 384.179 448.435 384.184ZM306.859 89.0411C302.762 89.0458 298.835 90.6751 295.938 93.5718C293.041 96.4684 291.412 100.396 291.407 104.492V367.488C291.412 371.584 293.041 375.512 295.938 378.408C298.835 381.305 302.762 382.934 306.859 382.939H448.435C452.531 382.934 456.458 381.305 459.355 378.408C462.252 375.512 463.881 371.584 463.886 367.488V104.492C463.881 100.396 462.252 96.4684 459.355 93.5718C456.458 90.6751 452.531 89.0458 448.435 89.0411H306.859Z" fill="#3F3D56"/>
<path d="M360.836 100.249C360.097 100.249 359.374 100.03 358.76 99.6195C358.146 99.209 357.667 98.6255 357.384 97.9428C357.101 97.2601 357.027 96.509 357.171 95.7842C357.316 95.0595 357.671 94.3938 358.194 93.8713C358.716 93.3489 359.382 92.993 360.107 92.8489C360.831 92.7047 361.583 92.7787 362.265 93.0615C362.948 93.3443 363.531 93.8231 363.942 94.4375C364.352 95.0519 364.572 95.7742 364.572 96.5131C364.57 97.5036 364.177 98.4532 363.476 99.1536C362.776 99.8541 361.826 100.248 360.836 100.249ZM360.836 94.0224C360.343 94.0224 359.861 94.1685 359.452 94.4422C359.042 94.7159 358.723 95.1049 358.535 95.56C358.346 96.0151 358.297 96.5159 358.393 96.999C358.489 97.4821 358.726 97.9259 359.074 98.2743C359.423 98.6226 359.867 98.8598 360.35 98.9559C360.833 99.052 361.334 99.0027 361.789 98.8142C362.244 98.6257 362.633 98.3064 362.906 97.8968C363.18 97.4873 363.326 97.0057 363.326 96.5131C363.326 95.8527 363.063 95.2196 362.596 94.7527C362.129 94.2858 361.496 94.0231 360.836 94.0224Z" fill="#3F3D56"/>
<path d="M397.573 95.8904H370.176V97.1357H397.573V95.8904Z" fill="#3F3D56"/>
<path d="M453.923 105.853V155.666C440.711 155.666 428.042 150.417 418.7 141.076C409.358 131.734 404.11 119.064 404.109 105.853H453.923Z" fill="#6C63FF"/>
<path d="M454.546 367.372H300.748V105.23H454.546V367.372ZM301.993 366.127H453.301V106.476H301.993V366.127Z" fill="#3F3D56"/>
<path opacity="0.1" d="M417.808 152.553C427.093 152.553 434.62 145.026 434.62 135.741C434.62 126.456 427.093 118.929 417.808 118.929C408.523 118.929 400.996 126.456 400.996 135.741C400.996 145.026 408.523 152.553 417.808 152.553Z" fill="black"/>
<path d="M415.318 154.421C424.603 154.421 432.13 146.894 432.13 137.609C432.13 128.324 424.603 120.797 415.318 120.797C406.033 120.797 398.506 128.324 398.506 137.609C398.506 146.894 406.033 154.421 415.318 154.421Z" fill="#6C63FF"/>
<path d="M331.259 115.816H307.598V124.533H331.259V115.816Z" fill="#3F3D56"/>
<path d="M344.335 198.63H320.674V207.347H344.335V198.63Z" fill="#3F3D56"/>
<path d="M435.244 231.009H320.674V214.819H435.244V231.009ZM321.919 229.763H433.999V216.065H321.919V229.763Z" fill="#3F3D56"/>
<path d="M429.016 266.501H315.691V281.445H429.016V266.501Z" fill="#F0F0F0"/>
<path d="M344.335 245.953H320.674V254.67H344.335V245.953Z" fill="#3F3D56"/>
<path d="M435.244 278.331H320.674V262.142H435.244V278.331ZM321.919 277.086H433.999V263.387H321.919V277.086Z" fill="#3F3D56"/>
<path d="M417.186 311.333H338.73V293.898H417.186V311.333ZM339.976 310.087H415.941V295.143H339.976V310.087Z" fill="#3F3D56"/>
<path d="M432.13 224.782C432.129 226.064 431.734 227.315 430.996 228.363C430.259 229.412 429.216 230.207 428.01 230.641C426.804 231.075 425.493 231.126 424.257 230.787C423.02 230.449 421.919 229.737 421.102 228.748L421.096 228.742C420.501 228.02 420.076 227.173 419.853 226.264C419.63 225.356 419.615 224.408 419.809 223.493C420.002 222.577 420.4 221.717 420.972 220.977C421.544 220.236 422.275 219.634 423.112 219.215C423.948 218.796 424.869 218.571 425.804 218.556C426.74 218.542 427.667 218.738 428.516 219.132C429.365 219.525 430.115 220.104 430.709 220.827C431.303 221.55 431.727 222.397 431.949 223.306C431.949 223.307 431.949 223.308 431.949 223.309C431.95 223.309 431.95 223.31 431.951 223.311C431.951 223.311 431.952 223.312 431.953 223.312C431.954 223.312 431.954 223.313 431.955 223.313C432.07 223.794 432.129 224.287 432.13 224.782Z" fill="#6C63FF"/>
<path opacity="0.1" d="M432.13 224.782C432.13 226.064 431.734 227.315 430.997 228.363C430.259 229.412 429.216 230.207 428.01 230.641C426.804 231.075 425.493 231.126 424.257 230.787C423.021 230.449 421.919 229.737 421.102 228.748L421.096 228.742C420.981 228.261 420.923 227.768 420.922 227.273C420.922 225.991 421.318 224.74 422.055 223.692C422.792 222.643 423.835 221.848 425.041 221.414C426.248 220.98 427.558 220.929 428.795 221.268C430.031 221.606 431.133 222.318 431.949 223.306C431.949 223.307 431.949 223.308 431.95 223.309C431.95 223.31 431.95 223.31 431.951 223.311C431.952 223.311 431.952 223.312 431.953 223.312C431.954 223.312 431.955 223.313 431.955 223.313C432.071 223.794 432.129 224.287 432.13 224.782Z" fill="black"/>
<path d="M428.395 234.745C431.834 234.745 434.621 231.957 434.621 228.518C434.621 225.079 431.834 222.291 428.395 222.291C424.956 222.291 422.168 225.079 422.168 228.518C422.168 231.957 424.956 234.745 428.395 234.745Z" fill="#6C63FF"/>
<path d="M432.13 272.105C432.129 273.387 431.734 274.637 430.996 275.686C430.259 276.734 429.216 277.53 428.01 277.964C426.804 278.398 425.493 278.449 424.257 278.11C423.02 277.771 421.919 277.059 421.102 276.071L421.096 276.065C420.501 275.343 420.076 274.496 419.853 273.587C419.63 272.678 419.615 271.731 419.809 270.816C420.002 269.9 420.4 269.04 420.972 268.299C421.544 267.559 422.275 266.956 423.112 266.537C423.948 266.118 424.869 265.893 425.804 265.879C426.74 265.865 427.667 266.061 428.516 266.454C429.365 266.848 430.115 267.427 430.709 268.15C431.303 268.873 431.727 269.72 431.949 270.629C431.949 270.63 431.949 270.631 431.949 270.631C431.95 270.632 431.95 270.633 431.951 270.634C431.951 270.634 431.952 270.635 431.953 270.635C431.954 270.635 431.954 270.635 431.955 270.635C432.07 271.117 432.129 271.61 432.13 272.105Z" fill="#6C63FF"/>
<path opacity="0.1" d="M432.13 272.105C432.13 273.387 431.734 274.637 430.997 275.686C430.259 276.734 429.216 277.53 428.01 277.964C426.804 278.398 425.493 278.449 424.257 278.11C423.021 277.771 421.919 277.059 421.102 276.071L421.096 276.065C420.981 275.583 420.923 275.09 420.922 274.595C420.922 273.313 421.318 272.063 422.055 271.014C422.792 269.966 423.835 269.17 425.041 268.736C426.248 268.302 427.558 268.251 428.795 268.59C430.031 268.929 431.133 269.641 431.949 270.629C431.949 270.63 431.949 270.631 431.95 270.631C431.95 270.632 431.95 270.633 431.951 270.633C431.952 270.634 431.952 270.634 431.953 270.635C431.954 270.635 431.955 270.635 431.955 270.635C432.071 271.117 432.129 271.61 432.13 272.105Z" fill="black"/>
<path d="M428.395 282.067C431.834 282.067 434.621 279.279 434.621 275.841C434.621 272.402 431.834 269.614 428.395 269.614C424.956 269.614 422.168 272.402 422.168 275.841C422.168 279.279 424.956 282.067 428.395 282.067Z" fill="#6C63FF"/>
<path d="M323.785 29.8879H291.406V62.2665H323.785V29.8879Z" fill="#6C63FF"/>
<path d="M417.808 53.5492C416.33 53.5492 414.885 53.111 413.657 52.2899C412.428 51.4689 411.47 50.3019 410.905 48.9366C410.339 47.5713 410.191 46.0689 410.48 44.6195C410.768 43.1701 411.479 41.8387 412.524 40.7937C413.569 39.7487 414.901 39.0371 416.35 38.7488C417.8 38.4605 419.302 38.6085 420.667 39.174C422.033 39.7395 423.2 40.6972 424.021 41.926C424.842 43.1548 425.28 44.5994 425.28 46.0772C425.278 48.0582 424.49 49.9575 423.089 51.3583C421.688 52.759 419.789 53.547 417.808 53.5492ZM417.808 39.8506C416.576 39.8506 415.373 40.2157 414.349 40.8999C413.325 41.5841 412.527 42.5566 412.055 43.6944C411.584 44.8321 411.461 46.0841 411.701 47.292C411.941 48.4998 412.534 49.6093 413.405 50.4801C414.276 51.3509 415.385 51.944 416.593 52.1842C417.801 52.4245 419.053 52.3012 420.191 51.8299C421.329 51.3586 422.301 50.5605 422.985 49.5366C423.669 48.5126 424.035 47.3087 424.035 46.0772C424.033 44.4264 423.376 42.8437 422.209 41.6764C421.041 40.5091 419.459 39.8524 417.808 39.8506Z" fill="#3F3D56"/>
<path d="M253.426 157.534H237.236V141.345H253.426V157.534ZM238.482 156.289H252.18V142.59H238.482V156.289Z" fill="#3F3D56"/>
<path d="M500 278.331H483.811V262.142H500V278.331ZM485.056 277.086H498.754V263.387H485.056V277.086Z" fill="#3F3D56"/>
<path d="M180.576 169.78L183.354 171.276L192.808 176.371L208.069 184.594L216.963 168.092C217.801 166.542 218.325 164.842 218.504 163.088C218.684 161.335 218.516 159.564 218.011 157.876C217.505 156.188 216.671 154.616 215.557 153.25C214.443 151.885 213.071 150.752 211.519 149.918C208.202 148.126 204.402 147.434 200.667 147.941C196.931 148.448 193.453 150.128 190.733 152.738L190.729 152.742C189.391 154.028 188.261 155.514 187.382 157.147L180.576 169.78Z" fill="#2F2E41"/>
<path d="M222.229 338.068L220.365 358.578L213.372 359.51L208.711 336.203L222.229 338.068Z" fill="#FFB8B8"/>
<path d="M211.507 359.51C211.507 359.51 220.364 354.849 222.229 358.578C222.229 358.578 220.83 369.765 226.424 371.164C232.018 372.562 234.348 382.351 226.424 383.284C218.5 384.216 213.372 381.419 210.575 381.419C207.778 381.419 210.575 371.63 210.575 371.63L211.507 359.51Z" fill="#2F2E41"/>
<path d="M165.826 338.068L167.691 358.578L174.683 359.51L179.344 336.203L165.826 338.068Z" fill="#FFB8B8"/>
<path d="M176.547 359.51C176.547 359.51 167.69 354.849 165.825 358.578C165.825 358.578 167.224 369.765 161.63 371.164C156.036 372.562 153.705 382.351 161.63 383.284C169.554 384.216 174.682 381.419 177.479 381.419C180.276 381.419 177.479 371.63 177.479 371.63L176.547 359.51Z" fill="#2F2E41"/>
<path d="M204.049 173.518C210.743 173.518 216.169 168.092 216.169 161.399C216.169 154.705 210.743 149.279 204.049 149.279C197.356 149.279 191.93 154.705 191.93 161.399C191.93 168.092 197.356 173.518 204.049 173.518Z" fill="#FFB8B8"/>
<path d="M165.361 185.172L175.15 200.555L186.804 199.622L205.916 201.021C205.916 201.021 207.72 197.413 209.193 193.903C209.999 192.15 210.62 190.317 211.044 188.435C211.51 185.172 204.984 181.909 204.984 181.909C204.984 181.909 204.727 181.862 204.298 181.76C203.73 181.625 202.853 181.401 201.893 181.075C199.726 180.338 197.12 179.089 196.593 177.247C195.661 173.984 202.653 169.323 202.653 169.323L194.262 161.399C194.262 161.399 186.809 171.752 177.756 174.11C177.231 174.249 176.699 174.358 176.162 174.437C176.134 174.441 176.111 174.446 176.083 174.451C166.294 175.849 165.361 185.172 165.361 185.172Z" fill="#FFB8B8"/>
<path d="M170.487 180.977L165.36 185.172C165.36 185.172 161.164 205.216 162.563 210.81C163.961 216.404 162.097 221.531 162.097 222.463C162.097 223.396 157.901 258.357 157.901 258.357C157.901 258.357 149.511 277.003 158.368 275.138C167.224 273.273 163.961 254.628 163.961 254.628L174.683 221.997V194.495L170.487 180.977Z" fill="#FFB8B8"/>
<path d="M207.314 184.706L211.043 187.503L212.908 226.659L226.892 260.221C226.892 260.221 237.147 276.536 230.621 277.003C224.095 277.469 219.9 260.221 219.9 260.221L207.314 228.057L205.449 196.826L207.314 184.706Z" fill="#FFB8B8"/>
<path d="M184.006 187.503C184.006 187.503 193.328 194.029 208.245 191.698C208.245 191.698 212.44 200.089 210.11 204.75C207.779 209.412 212.907 220.599 213.839 221.997C214.771 223.396 225.492 252.297 229.222 283.529C232.951 314.76 243.206 336.203 234.349 339C225.492 341.797 207.313 345.06 205.448 342.263C203.584 339.466 200.787 270.01 200.787 270.01L195.659 296.581C195.659 296.581 202.651 341.797 197.524 342.729C192.396 343.661 160.232 340.864 161.164 335.271C162.097 329.677 171.42 300.31 171.42 300.31C171.42 300.31 170.953 241.575 180.276 230.388C180.276 230.388 184.006 224.328 178.878 216.404C173.75 208.479 174.216 195.893 174.216 195.893C174.216 195.893 177.946 195.893 184.006 187.503Z" fill="#2F2E41"/>
<path d="M176.162 174.437L184.008 191.698L185.872 190.766L177.756 174.11L176.162 174.437Z" fill="#2F2E41"/>
<path d="M201.891 181.075L207.778 194.029L209.19 193.903L208.71 191.698L204.296 181.76C203.727 181.625 202.851 181.401 201.891 181.075Z" fill="#2F2E41"/>
<path d="M183.353 171.276C183.801 172.718 184.665 173.996 185.836 174.949C187.007 175.903 188.433 176.489 189.936 176.636C191.439 176.782 192.952 176.481 194.285 175.772C195.618 175.062 196.712 173.975 197.43 172.647C191.534 164.937 196.591 160.093 206.17 156.43C206.892 155.09 207.199 153.567 207.052 152.053C206.905 150.539 206.311 149.103 205.345 147.927C202.705 147.589 200.023 147.846 197.494 148.678C194.966 149.511 192.655 150.898 190.732 152.738L190.727 152.742L183.921 165.366C183.437 166.263 183.137 167.248 183.039 168.263C182.941 169.279 183.048 170.303 183.353 171.276Z" fill="#2F2E41"/>
<path d="M196.823 165.594C197.724 165.594 198.454 164.342 198.454 162.797C198.454 161.252 197.724 160 196.823 160C195.922 160 195.191 161.252 195.191 162.797C195.191 164.342 195.922 165.594 196.823 165.594Z" fill="#FFB8B8"/>
<path d="M201.686 158.234L215.698 164.582L218.266 158.914C217.824 156.842 216.897 154.905 215.563 153.26L205.918 148.892L201.686 158.234Z" fill="#2F2E41"/>
<path d="M235.367 283.313C238.806 283.313 241.594 280.525 241.594 277.086C241.594 273.647 238.806 270.859 235.367 270.859C231.928 270.859 229.141 273.647 229.141 277.086C229.141 280.525 231.928 283.313 235.367 283.313Z" fill="#6C63FF"/>
<path d="M35.4639 320.328C37.7113 320.328 39.5332 318.506 39.5332 316.259C39.5332 314.011 37.7113 312.189 35.4639 312.189C33.2164 312.189 31.3945 314.011 31.3945 316.259C31.3945 318.506 33.2164 320.328 35.4639 320.328Z" fill="#FF6584"/>
<path d="M56.0246 337.468H54.7793V383.801H56.0246V337.468Z" fill="#3F3D56"/>
<path d="M55.3998 344.019C59.0185 344.019 61.952 341.086 61.952 337.467C61.952 333.849 59.0185 330.915 55.3998 330.915C51.7812 330.915 48.8477 333.849 48.8477 337.467C48.8477 341.086 51.7812 344.019 55.3998 344.019Z" fill="#3F3D56"/>
<path d="M55.4019 366.023C55.4019 366.023 54.4659 345.892 35.2773 348.232L55.4019 366.023Z" fill="#3F3D56"/>
</g>
<defs>
<clipPath id="clip0">
<rect width="500" height="384.184" fill="white"/>
</clipPath>
</defs>
</svg>
