<svg width="50" height="56" viewBox="0 0 50 56" fill="none" xmlns="http://www.w3.org/2000/svg">
<path d="M40.0295 5.59683C28.9934 5.80072 21.3056 0.27822 15.9878 0.377796C10.67 0.477371 -0.444309 3.7128 0.013735 27.9429C0.471779 52.173 15.5649 55.4511 21.4157 55.3436C48.8074 54.8363 59.577 5.23488 40.0295 5.59683Z" fill="#57567B"/>
<path d="M45.9072 9.37256H49.0992V10.9531H45.9072V9.37256Z" fill="#A4AFC1"/>
<path d="M36.7305 9.37256H39.9224V10.9531H36.7305V9.37256Z" fill="#A4AFC1"/>
<path d="M42.3164 3.84082H43.9124V7.00195H42.3164V3.84082Z" fill="#A4AFC1"/>
<path d="M44.351 45.9629C43.0311 45.9629 41.957 44.8992 41.957 43.592C41.957 42.2849 43.0311 41.2212 44.351 41.2212C45.6709 41.2212 46.7449 42.2849 46.7449 43.592C46.7449 44.8992 45.6709 45.9629 44.351 45.9629ZM44.351 42.8018C43.9105 42.8018 43.553 43.1574 43.553 43.592C43.553 44.0267 43.9105 44.3823 44.351 44.3823C44.7915 44.3823 45.149 44.0267 45.149 43.592C45.149 43.1574 44.7915 42.8018 44.351 42.8018Z" fill="#A4AFC1"/>
<path d="M45.4166 14.2412H14.5834C12.0551 14.2412 10 16.2764 10 18.7804V36.1115C10 38.6155 12.0551 40.6505 14.5834 40.6505H45.4166C47.9449 40.6505 50 38.6155 50 36.1115V18.7804C50 16.2764 47.9449 14.2412 45.4166 14.2412V14.2412Z" fill="#4DB6AC"/>
<path d="M30.4151 30.747C30.1652 30.747 29.91 30.673 29.69 30.5161L25.8335 27.7876V29.5091C25.8335 30.1924 25.2735 30.747 24.5835 30.747C23.8935 30.747 23.3335 30.1924 23.3335 29.5091V25.3976C23.3335 25.3876 23.3335 25.3779 23.3335 25.3679V20.431C23.3335 19.7477 23.8935 19.1931 24.5835 19.1931H27.9166C29.9833 19.1931 31.6666 20.8602 31.6666 22.9069C31.6666 24.7819 30.2567 26.3351 28.4351 26.5859L31.1432 28.5024C31.7066 28.9001 31.8351 29.6726 31.435 30.2287C31.1899 30.5672 30.8051 30.747 30.4151 30.747ZM25.8335 24.1448H27.9166C28.6051 24.1448 29.1666 23.5887 29.1666 22.9069C29.1666 22.2251 28.6051 21.669 27.9166 21.669H25.8335V24.1448Z" fill="#FAFAFA"/>
<path d="M32.9165 35.6988C32.2265 35.6988 31.6665 35.1442 31.6665 34.4609V25.3827C31.6665 24.6994 32.2265 24.1448 32.9165 24.1448H36.2499C38.3166 24.1448 39.9999 25.8119 39.9999 27.8586C39.9999 29.9053 38.3166 31.5724 36.2499 31.5724H34.1665V34.4609C34.1665 35.1442 33.6065 35.6988 32.9165 35.6988ZM34.1665 29.0965H36.2499C36.9384 29.0965 37.4999 28.5404 37.4999 27.8586C37.4999 27.1768 36.9384 26.6207 36.2499 26.6207H34.1665V29.0965Z" fill="#FAFAFA"/>
<path d="M20.4166 21.669H16.25C15.56 21.669 15 21.1144 15 20.4311C15 19.7477 15.56 19.1931 16.25 19.1931H20.4166C21.1066 19.1931 21.6666 19.7477 21.6666 20.4311C21.6666 21.1144 21.1066 21.669 20.4166 21.669Z" fill="#009688"/>
<path d="M43.7501 35.699H39.5835C38.8935 35.699 38.3335 35.1444 38.3335 34.4611C38.3335 33.7777 38.8935 33.2231 39.5835 33.2231H43.7501C44.4401 33.2231 45.0001 33.7777 45.0001 34.4611C45.0001 35.1444 44.4401 35.699 43.7501 35.699Z" fill="#009688"/>
</svg>
