<svg width="50" height="40" viewBox="0 0 50 40" fill="none" xmlns="http://www.w3.org/2000/svg">
<path d="M46.9513 7.27136H3.04871C1.3649 7.27136 0 5.90753 0 4.22504C0 2.54254 1.3649 1.17871 3.04871 1.17871H46.9513C48.6351 1.17871 50 2.54254 50 4.22504C50 5.90753 48.6351 7.27136 46.9513 7.27136Z" fill="#D8D8D8"/>
<path d="M3.04871 2.60043H46.9513C48.3898 2.60043 49.5953 3.5964 49.9157 4.93579C49.9702 4.70748 50 4.47002 50 4.22493C50 2.5425 48.6351 1.17871 46.9509 1.17871H3.04871C1.3649 1.17871 0 2.5425 0 4.22493C0 4.47002 0.0297547 4.70786 0.0843048 4.93579C0.404739 3.5964 1.61018 2.60043 3.04871 2.60043Z" fill="#BABABA"/>
<path d="M37.6015 7.27136H3.04871C1.3649 7.27136 0 5.90753 0 4.22504C0 2.54254 1.3649 1.17871 3.04871 1.17871H37.6015V7.27136Z" fill="#8685B5"/>
<path d="M0.0843048 3.51465C0.0297547 3.74259 0 3.98044 0 4.22515C0 5.90764 1.3649 7.27185 3.04871 7.27185H37.6015V5.85008H3.04871C1.61018 5.85008 0.404739 4.8537 0.0843048 3.51465Z" fill="#57567B"/>
<path d="M46.9513 22.91H3.04871C1.3649 22.91 0 21.5462 0 19.8637C0 18.1812 1.3649 16.8174 3.04871 16.8174H46.9513C48.6351 16.817 50 18.1812 50 19.8637C50 21.5462 48.6351 22.91 46.9513 22.91Z" fill="#D8D8D8"/>
<path d="M3.04871 18.2386H46.9513C48.3898 18.2386 49.5953 19.235 49.9157 20.5743C49.9702 20.346 50 20.1082 50 19.8635C50 18.1811 48.6351 16.8169 46.9509 16.8169H3.04871C1.3649 16.8169 0 18.1811 0 19.8635C0 20.1082 0.0297547 20.346 0.0843048 20.5743C0.404739 19.235 1.61018 18.2386 3.04871 18.2386Z" fill="#BABABA"/>
<path d="M20.3251 22.91H3.04871C1.3649 22.91 0 21.5462 0 19.8637C0 18.1812 1.3649 16.8174 3.04871 16.8174H20.3251V22.91Z" fill="#5AFF6A"/>
<path d="M20.3251 22.91H3.04871C1.3649 22.91 0 21.5462 0 19.8637C0 18.1812 1.3649 16.8174 3.04871 16.8174H20.3251V22.91Z" fill="#8685B5"/>
<path d="M0.0843048 19.1526V19.153C0.0297547 19.3809 0 19.6188 0 19.8635C0 21.5461 1.3649 22.91 3.04871 22.91H20.3251V21.4882H3.04871C1.61018 21.4882 0.404739 20.4921 0.0843048 19.1526Z" fill="#57567B"/>
<path d="M46.9513 38.5483H3.04871C1.3649 38.5483 0 37.1841 0 35.5015C0 33.819 1.3649 32.4551 3.04871 32.4551H46.9513C48.6351 32.4551 50 33.819 50 35.5015C50 37.1841 48.6351 38.5483 46.9513 38.5483Z" fill="#D8D8D8"/>
<path d="M3.04871 33.8769H46.9513C48.3898 33.8769 49.5953 34.873 49.9157 36.2125C49.9702 35.9846 50 35.7467 50 35.5016C50 33.819 48.6351 32.4551 46.9509 32.4551H3.04871C1.3649 32.4551 0 33.819 0 35.5016C0 35.7467 0.0297547 35.9846 0.0843048 36.2125C0.404739 34.873 1.61018 33.8769 3.04871 33.8769Z" fill="#BABABA"/>
<path d="M37.6015 38.5483H3.04871C1.3649 38.5483 0 37.1841 0 35.5015C0 33.819 1.3649 32.4551 3.04871 32.4551H37.6015V38.5483Z" fill="#8685B5"/>
<path d="M0.0843048 34.791C0.0297547 35.0193 0 35.2568 0 35.5015C0 37.1841 1.3649 38.5483 3.04871 38.5483H37.6015V37.1265H3.04871C1.61018 37.1265 0.404739 36.1305 0.0843048 34.791Z" fill="#57567B"/>
<path d="M41.6669 4.22497C41.6669 6.46861 39.8469 8.28723 37.6016 8.28723C35.3566 8.28723 33.5366 6.46861 33.5366 4.22497C33.5366 1.98171 35.3566 0.163086 37.6016 0.163086C39.8469 0.163086 41.6669 1.98171 41.6669 4.22497Z" fill="#757575"/>
<path d="M41.6669 35.5017C41.6669 37.7453 39.8469 39.5638 37.6016 39.5638C35.3566 39.5638 33.5366 37.7453 33.5366 35.5017C33.5366 33.2585 35.3566 31.4399 37.6016 31.4399C39.8469 31.4399 41.6669 33.2585 41.6669 35.5017Z" fill="#757575"/>
<path d="M24.3905 19.8635C24.3905 22.1067 22.5705 23.9253 20.3252 23.9253C18.0802 23.9253 16.2603 22.1067 16.2603 19.8635C16.2603 17.6203 18.0802 15.8018 20.3252 15.8018C22.5705 15.8018 24.3905 17.6203 24.3905 19.8635Z" fill="#757575"/>
</svg>
