<svg width="50" height="51" viewBox="0 0 50 51" fill="none" xmlns="http://www.w3.org/2000/svg">
<path d="M47.7029 25.1538L49.8965 19.4365C50.1372 18.8058 49.9497 18.0907 49.4216 17.663L44.6655 13.8098L43.703 7.76153C43.5967 7.09332 43.0717 6.57186 42.403 6.4657L36.3501 5.50397L32.4971 0.748409C32.0721 0.220707 31.3408 0.0333572 30.7252 0.273789L25.0004 2.4689L19.2787 0.276912C18.6443 0.0333571 17.935 0.226952 17.5069 0.751531L13.6507 5.50709L7.5978 6.46882C6.93219 6.57498 6.40721 7.09956 6.30096 7.76466L5.33849 13.8129L0.579257 17.6661C0.0542731 18.0907 -0.136346 18.8058 0.104272 19.4365L2.29796 25.1538L0.104272 30.8711C-0.139471 31.5019 0.0542731 32.2169 0.579257 32.6416L5.33849 36.4916L6.30096 42.5399C6.40721 43.2081 6.92907 43.7327 7.5978 43.8388L13.6507 44.8006L17.5069 49.553C17.935 50.0838 18.6506 50.2712 19.2818 50.0276L25.0004 47.8388L30.7221 50.0308C30.9034 50.0994 31.0909 50.1338 31.2815 50.1338C31.7408 50.1338 32.1939 49.9308 32.4971 49.553L36.3501 44.8006L42.403 43.8388C43.0717 43.7327 43.5967 43.2081 43.703 42.5399L44.6655 36.4916L49.4216 32.6416C49.9497 32.2138 50.1372 31.5019 49.8965 30.8711L47.7029 25.1538Z" fill="#57567B"/>
<path d="M20.3128 22.032C17.7285 22.032 15.6255 19.9306 15.6255 17.3483C15.6255 14.766 17.7285 12.6646 20.3128 12.6646C22.8971 12.6646 25.0002 14.766 25.0002 17.3483C25.0002 19.9306 22.8971 22.032 20.3128 22.032ZM20.3128 15.787C19.4504 15.787 18.7504 16.4865 18.7504 17.3483C18.7504 18.2101 19.4504 18.9095 20.3128 18.9095C21.1753 18.9095 21.8753 18.2101 21.8753 17.3483C21.8753 16.4865 21.1753 15.787 20.3128 15.787Z" fill="#FAFAFA"/>
<path d="M29.6878 37.6438C27.1035 37.6438 25.0005 35.5424 25.0005 32.9602C25.0005 30.378 27.1035 28.2766 29.6878 28.2766C32.2721 28.2766 34.3752 30.378 34.3752 32.9602C34.3752 35.5424 32.2721 37.6438 29.6878 37.6438ZM29.6878 31.399C28.8285 31.399 28.1254 32.1015 28.1254 32.9602C28.1254 33.8189 28.8285 34.5214 29.6878 34.5214C30.5472 34.5214 31.2503 33.8189 31.2503 32.9602C31.2503 32.1015 30.5472 31.399 29.6878 31.399Z" fill="#FAFAFA"/>
<path d="M17.1875 37.6438C16.8719 37.6438 16.5563 37.5501 16.2813 37.3534C15.5782 36.8507 15.4157 35.8765 15.9188 35.1739L31.5433 13.3164C32.0464 12.6139 33.0214 12.4515 33.7245 12.9542C34.4276 13.4538 34.587 14.4312 34.087 15.1306L18.4625 36.9881C18.1531 37.4159 17.675 37.6438 17.1875 37.6438Z" fill="#FAFAFA"/>
</svg>
