<svg width="50" height="59" viewBox="0 0 50 59" fill="none" xmlns="http://www.w3.org/2000/svg">
<path d="M47.3589 39.2079C45.7807 43.4437 43.394 47.1268 40.2641 50.1537C36.7015 53.5989 32.0365 56.3366 26.3985 58.2895C26.2135 58.3533 26.0204 58.4057 25.8265 58.4443C25.5703 58.4944 25.3095 58.5215 25.0511 58.525H25.0005C24.725 58.525 24.4481 58.4975 24.1735 58.4443C23.9796 58.4057 23.7892 58.3533 23.6051 58.2908C17.9604 56.341 13.2895 53.6047 9.72333 50.1594C6.59211 47.1325 4.20585 43.4517 2.62994 39.2159C-0.235641 31.5144 -0.0725852 23.0304 0.0586661 16.2126L0.0609059 16.1079C0.0873353 15.545 0.104358 14.9536 0.113765 14.3006C0.161696 11.0945 2.73566 8.44197 5.97349 8.26319C12.7242 7.89009 17.9465 5.70963 22.4086 1.4024L22.4475 1.36691C23.1885 0.69392 24.122 0.363857 25.0511 0.37761C25.947 0.389144 26.8393 0.718763 27.5538 1.36691L27.5919 1.4024C32.0549 5.70963 37.2772 7.89009 44.0279 8.26319C47.2657 8.44197 49.8397 11.0945 49.8876 14.3006C49.897 14.958 49.914 15.5485 49.9404 16.1079L49.9418 16.1523C50.0726 22.9829 50.2347 31.4838 47.3589 39.2079Z" fill="#8685B5"/>
<path d="M47.3586 39.208C45.7805 43.4438 43.3937 47.1269 40.2639 50.1538C36.7013 53.599 32.0362 56.3367 26.3982 58.2896C26.2132 58.3535 26.0202 58.4058 25.8262 58.4444C25.57 58.4945 25.3093 58.5216 25.0508 58.5251V0.377686C25.9467 0.38922 26.839 0.718839 27.5535 1.36699L27.5916 1.40248C32.0546 5.70971 37.2769 7.89017 44.0276 8.26327C47.2654 8.44205 49.8394 11.0945 49.8873 14.3007C49.8967 14.9581 49.9138 15.5486 49.9402 16.108L49.9415 16.1524C50.0723 22.983 50.2345 31.4839 47.3586 39.208Z" fill="#57567B"/>
<path d="M39.6326 29.4512C39.6326 37.4246 33.0955 43.915 25.0511 43.9434H24.9996C16.9315 43.9434 10.3662 37.4419 10.3662 29.4512C10.3662 21.4609 16.9315 14.9595 24.9996 14.9595H25.0511C33.0955 14.9879 39.6326 21.4782 39.6326 29.4512Z" fill="white"/>
<path d="M39.6323 29.4512C39.6323 37.4246 33.0952 43.915 25.0508 43.9434V14.9595C33.0952 14.9879 39.6323 21.4782 39.6323 29.4512Z" fill="#E1EBF0"/>
<path d="M31.6412 27.3642L25.0508 33.8919L23.6268 35.3022C23.2904 35.6354 22.8491 35.8018 22.4083 35.8018C21.9671 35.8018 21.5263 35.6354 21.1895 35.3022L18.1277 32.2686C17.4548 31.6023 17.4548 30.5229 18.1277 29.8561C18.7996 29.1898 19.8908 29.1898 20.5637 29.8561L22.4083 31.683L29.2052 24.9517C29.878 24.285 30.9693 24.285 31.6412 24.9517C32.314 25.6181 32.314 26.6988 31.6412 27.3642Z" fill="#89DAA4"/>
<path d="M31.6411 27.3643L25.0508 33.892V29.0656L29.2051 24.9518C29.878 24.285 30.9692 24.285 31.6411 24.9518C32.314 25.6181 32.314 26.6988 31.6411 27.3643Z" fill="#28B446"/>
</svg>
