<svg width="40" height="68" viewBox="0 0 40 68" fill="none" xmlns="http://www.w3.org/2000/svg">
<path d="M9.69548 50.7067H9.69598C11.99 50.7049 13.961 49.3841 15.0727 47.4701C16.0972 45.7088 16.0833 44.1212 16.0735 43.008C16.0731 42.9659 16.0728 42.9245 16.0725 42.8838L16.344 42.1346L15.5114 41.749C11.2345 39.7686 8.15172 35.0062 8.15172 29.3665V28.9119V27.9119H7.15172C5.95718 27.9119 4.90582 26.8335 4.90582 25.3476V19.3112V19.3013L4.90563 19.2915C4.86435 17.2037 4.97518 10.1628 9.46895 5.31709C14.2377 0.175351 21.7022 0.106581 27.6901 2.6037L27.4139 2.73088C27.4139 2.73089 27.4138 2.7309 27.4138 2.73091C26.796 3.01532 26.6255 3.63702 26.6821 4.07679C26.7386 4.51571 27.0722 5.1044 27.784 5.18986C27.7841 5.18988 27.7843 5.1899 27.7845 5.18992C27.7846 5.18993 27.7847 5.18994 27.7848 5.18995L28.5928 5.28717L28.5935 5.28725C32.0017 5.69497 35.2152 7.70713 37.309 11.1227C35.9668 12.8878 35.235 15.1215 35.235 17.4216V25.3476C35.235 26.8718 34.1533 27.9119 33.0488 27.9119H32.8593H31.8593V28.9119V29.3665C31.8593 35.0062 28.7765 39.7686 24.4996 41.749L23.6669 42.1346L23.9384 42.8835C23.938 42.926 23.9376 42.9693 23.9372 43.0134C23.9262 44.1009 23.91 45.7021 24.9379 47.4695C26.0496 49.3838 28.0207 50.7049 30.315 50.7067H30.3155C35.0106 50.7079 39.0002 54.9994 39.0002 60.5376V66.2399C39.0002 66.3199 38.9714 66.3718 38.9505 66.3952C38.9481 66.398 38.9459 66.4002 38.944 66.4019H1.06698C1.06512 66.4002 1.06292 66.398 1.06043 66.3952C1.03956 66.3718 1.01074 66.3199 1.01074 66.2399V60.5376C1.01074 54.9994 5.00034 50.7079 9.69548 50.7067Z" stroke="black" stroke-width="2"/>
<path d="M9.6842 50.7364C11.5673 50.7357 13.2325 49.8452 14.3835 48.4688C17.7606 51.0358 22.2274 51.0371 25.606 48.4688C26.757 49.8452 28.4222 50.7357 30.3053 50.7364C34.9993 50.7383 38.9895 55.0292 38.9895 60.5673V66.2696C38.9895 66.3492 38.9608 66.4013 38.9397 66.4248C38.9372 66.4276 38.9349 66.4299 38.933 66.4316H1.05644C1.05456 66.4299 1.05232 66.4276 1.04979 66.4248C1.02873 66.4013 1 66.3492 1 66.2696V60.5673C1 55.0292 4.99014 50.7383 9.6842 50.7364ZM9.6842 50.7364L9.68382 49.7364M9.6842 50.7364L9.68382 49.7364M9.68382 49.7364C11.2365 49.7358 12.6368 49.0013 13.6185 47.8253L26.371 47.8253C27.3526 49.0013 28.753 49.7358 30.3057 49.7364C35.6536 49.7386 39.9895 54.5847 39.9895 60.5673V66.2696C39.9895 66.9113 39.5244 67.4316 38.9508 67.4316H1.03869C0.465073 67.4316 0 66.9113 0 66.2696V60.5673C0 54.5847 4.33587 49.7386 9.68382 49.7364ZM14.968 47.6569C17.9976 49.9732 21.9905 49.9743 25.0215 47.6569L14.968 47.6569Z" stroke="black" stroke-width="2"/>
<path d="M31.8589 29.3666C31.8589 36.8667 26.4464 42.7458 20.0051 42.7458C13.9475 42.7458 8.15137 37.458 8.15137 28.9119V19.9401C8.15137 16.5336 10.5963 13.9684 13.3835 13.9684H26.6268C29.4139 13.9684 31.8589 16.5336 31.8589 19.9401V29.3666Z" stroke="black" stroke-width="2"/>
<path d="M32.1437 60.6073C32.1412 60.6101 32.1389 60.6123 32.1371 60.614H29.0564C29.0545 60.6123 29.0523 60.6101 29.0498 60.6072C29.0287 60.5837 29 60.5317 29 60.4521C29 60.3725 29.0287 60.3205 29.0498 60.297C29.0523 60.2941 29.0545 60.2919 29.0564 60.2902H32.137C32.1389 60.2919 32.1411 60.2941 32.1437 60.297C32.1647 60.3205 32.1934 60.3725 32.1934 60.4521C32.1934 60.5318 32.1647 60.5838 32.1437 60.6073Z" stroke="black" stroke-width="2"/>
<path d="M23.9512 44.1128C23.9574 44.236 23.9663 44.3592 23.9786 44.4846C21.4417 45.489 18.7311 45.5542 16.0319 44.4847C16.0443 44.3593 16.0531 44.236 16.0594 44.1127C18.6255 44.9571 21.3816 44.9584 23.9512 44.1128Z" stroke="black" stroke-width="2"/>
</svg>
