<svg width="51" height="57" viewBox="0 0 51 57" fill="none" xmlns="http://www.w3.org/2000/svg">
<path d="M46.6208 8.50689L46.6207 8.50692C46.2793 8.88891 45.9745 9.43513 45.6928 9.97982C45.5475 10.2608 45.3952 10.5684 45.2373 10.8872L45.2305 10.9008C45.0689 11.2271 44.8995 11.5689 44.717 11.9251C43.9859 13.3514 43.0649 14.964 41.7675 16.4154C40.4711 17.8657 38.9963 18.934 37.6871 19.7914C37.3599 20.0057 37.0454 20.2053 36.7449 20.3961L36.7296 20.4057C36.4371 20.5914 36.1544 20.7707 35.8963 20.9411C35.3944 21.2725 34.8903 21.6295 34.5478 22.0126C34.0605 22.5578 34.0685 23.2364 34.1167 23.6639C34.1546 24.0001 34.2473 24.3874 34.3249 24.7113C34.3465 24.8015 34.3669 24.8868 34.3846 24.9647C34.5874 25.8558 34.5628 26.2716 34.3148 26.549C34.2263 26.648 34.0362 26.7456 33.7674 26.7437C33.4955 26.7419 33.3049 26.6394 33.2241 26.5491L32.8833 26.1679L32.3748 26.221L28.0811 26.6692V21.5592L28.4933 21.0981L30.2652 19.1158L35.7571 12.9722L44.9561 2.68145C45.9163 1.60733 47.4827 1.52269 48.5226 2.61119C48.5487 2.65781 48.5848 2.72374 48.6278 2.80636C48.7255 2.99394 48.857 3.26408 48.9884 3.58722C49.2578 4.24995 49.4965 5.0622 49.4965 5.81697C49.4965 6.37454 49.3775 6.69876 49.2536 6.89874C49.1284 7.10074 48.9492 7.25501 48.6995 7.39485C48.481 7.51718 48.2603 7.60347 47.9899 7.70918C47.9213 7.736 47.8494 7.76408 47.7736 7.79432C47.4769 7.91268 46.9717 8.11433 46.6208 8.50689Z" stroke="#101010" stroke-width="2"/>
<mask id="path-2-inside-1" fill="white">
<path d="M49.333 2.01489C49.333 2.01489 49.892 3.25971 49.892 5.14069C49.892 7.9656 47.4463 7.73142 46.7618 8.49707C45.7765 9.59933 44.673 13.3131 41.9086 16.4056C39.1441 19.4982 35.6716 20.9035 34.6889 22.0028C33.4774 23.3582 35.3743 25.5119 34.4559 26.5392C33.9856 27.0654 32.4918 27.2301 31.8742 26.5392L27.0811 27.7788H32.9823C33.6 28.4698 34.9225 28.4965 35.564 27.7788C36.8164 26.3778 35.0322 24.0981 35.7971 23.2424C36.7798 22.1431 40.2521 20.7379 43.0167 17.6453C45.7812 14.5527 46.8848 10.839 47.87 9.73671C48.5544 8.97106 51.0001 9.20524 51.0001 6.38033C51.0001 4.49935 50.4554 3.27053 49.333 2.01489Z"/>
</mask>
<path d="M31.8742 26.5392L33.3653 25.2063L32.5532 24.2978L31.3734 24.6029L31.8742 26.5392ZM27.0811 27.7788L26.5803 25.8425L27.0811 29.7788V27.7788ZM32.9823 27.7788L34.4734 26.4459L33.8771 25.7788H32.9823V27.7788ZM47.87 9.73671L46.3789 8.4038L46.3788 8.40388L47.87 9.73671ZM49.333 2.01489C47.5085 2.8342 47.5083 2.8337 47.5081 2.8332C47.508 2.83304 47.5078 2.83255 47.5076 2.83224C47.5074 2.8316 47.5071 2.83098 47.5068 2.83038C47.5063 2.82919 47.5058 2.82806 47.5053 2.827C47.5044 2.82489 47.5036 2.82306 47.5029 2.82151C47.5015 2.8184 47.5007 2.81642 47.5003 2.81555C47.4995 2.81379 47.5007 2.81643 47.5035 2.82332C47.5091 2.83712 47.5212 2.86776 47.5378 2.91409C47.5711 3.007 47.622 3.16132 47.6749 3.36806C47.7811 3.78347 47.892 4.39663 47.892 5.14069H51.892C51.892 4.00378 51.7234 3.05404 51.5501 2.37679C51.4632 2.0372 51.3744 1.76275 51.3029 1.56348C51.2671 1.46372 51.2355 1.38241 51.2106 1.32079C51.1981 1.28997 51.1872 1.26402 51.1783 1.24312C51.1738 1.23266 51.1698 1.22346 51.1663 1.21554C51.1646 1.21157 51.163 1.20793 51.1615 1.2046C51.1608 1.20294 51.1601 1.20136 51.1594 1.19986C51.1591 1.1991 51.1587 1.19837 51.1584 1.19766C51.1583 1.19731 51.158 1.19679 51.1579 1.19661C51.1577 1.1961 51.1575 1.19559 49.333 2.01489ZM47.892 5.14069C47.892 5.54962 47.807 5.68303 47.7991 5.69572C47.7887 5.71245 47.7574 5.76152 47.6064 5.84605C47.4071 5.95768 47.2221 6.02031 46.7987 6.18922C46.5308 6.29608 45.8015 6.57046 45.2708 7.16416L48.2529 9.82997C48.0644 10.0409 47.8975 10.0574 48.2807 9.90454C48.5083 9.81375 49.0631 9.61481 49.5607 9.33616C50.1067 9.03042 50.7296 8.56051 51.1992 7.80271C51.6713 7.04088 51.892 6.14423 51.892 5.14069H47.892ZM45.2708 7.16416C44.8341 7.65259 44.4783 8.30627 44.2001 8.84417C44.0479 9.13843 43.8892 9.45905 43.7299 9.78066C43.568 10.1076 43.4015 10.4435 43.2225 10.7928C42.5051 12.1926 41.6301 13.7162 40.4175 15.0727L43.3997 17.7385C44.9515 16.0025 46.0105 14.1229 46.7822 12.6172C46.9755 12.2401 47.1536 11.8807 47.3144 11.556C47.4778 11.2261 47.6201 10.9389 47.7531 10.6816C47.8865 10.4237 47.9968 10.2229 48.0916 10.0674C48.138 9.99119 48.1759 9.93392 48.2057 9.89195C48.2204 9.87135 48.2319 9.85612 48.2403 9.84544C48.2487 9.83472 48.253 9.82995 48.2529 9.82997L45.2708 7.16416ZM40.4175 15.0727C39.207 16.4269 37.8167 17.439 36.5348 18.2786C36.2144 18.4884 35.9058 18.6843 35.6047 18.8754C35.3088 19.0632 35.0125 19.251 34.7409 19.4303C34.244 19.7584 33.6372 20.1784 33.1978 20.6699L36.18 23.3357C36.1798 23.3359 36.1837 23.3316 36.1928 23.3226C36.2018 23.3137 36.2149 23.3013 36.2329 23.2853C36.2694 23.2527 36.3199 23.2107 36.388 23.1582C36.5272 23.0511 36.7088 22.9242 36.9447 22.7684C37.1801 22.6131 37.4436 22.4459 37.7477 22.2529C38.0467 22.0632 38.3785 21.8526 38.7263 21.6248C40.1175 20.7137 41.8457 19.4769 43.3997 17.7385L40.4175 15.0727ZM33.1978 20.6699C31.7971 22.2369 32.352 24.1948 32.5216 24.8767C32.6511 25.3973 32.703 25.5901 32.7159 25.749C32.7243 25.8532 32.6759 25.5295 32.9648 25.2063L35.947 27.8721C36.6951 27.0352 36.7539 26.057 36.7029 25.4262C36.6562 24.8499 36.4819 24.227 36.4033 23.9113C36.157 22.9208 36.3692 23.1241 36.18 23.3357L33.1978 20.6699ZM32.9648 25.2063C33.0607 25.0991 33.146 25.0405 33.188 25.0147C33.2111 25.0005 33.2287 24.9916 33.2392 24.9866C33.2498 24.9816 33.2557 24.9794 33.2563 24.9792C33.2564 24.9791 33.2439 24.9835 33.2196 24.9882C33.1958 24.9927 33.1681 24.9961 33.1395 24.9972C33.0737 24.9999 33.0493 24.9897 33.0707 24.9964C33.0917 25.003 33.2243 25.0486 33.3653 25.2063L30.3831 27.8721C31.26 28.8531 32.5073 29.0261 33.3011 28.994C33.7456 28.976 34.201 28.8922 34.6257 28.7375C35.0267 28.5913 35.5358 28.3321 35.947 27.8721L32.9648 25.2063ZM31.3734 24.6029L26.5803 25.8425L27.5818 29.7151L32.375 28.4755L31.3734 24.6029ZM27.0811 29.7788H32.9823V25.7788H27.0811V29.7788ZM31.4912 29.1117C32.2561 29.9674 33.33 30.3007 34.2506 30.307C35.1771 30.3133 36.2699 29.9902 37.0551 29.1117L34.073 26.4459C34.1463 26.3639 34.2163 26.3287 34.2479 26.3163C34.2774 26.3048 34.2865 26.3072 34.2779 26.3071C34.2692 26.307 34.2749 26.3047 34.2996 26.3146C34.3249 26.3247 34.3954 26.3586 34.4734 26.4459L31.4912 29.1117ZM37.0551 29.1117C38.4377 27.5651 37.9896 25.6362 37.8135 24.8623C37.6854 24.2993 37.6249 24.0992 37.6015 23.8911C37.5775 23.6783 37.6892 24.1267 37.2882 24.5753L34.306 21.9095C33.5225 22.786 33.5704 23.8403 33.6267 24.3394C33.6835 24.8431 33.8474 25.4609 33.9132 25.75C34.1249 26.6801 33.9427 26.5916 34.073 26.4459L37.0551 29.1117ZM37.2882 24.5753C37.2879 24.5756 37.2918 24.5712 37.3009 24.5623C37.31 24.5533 37.3231 24.5409 37.341 24.5249C37.3775 24.4924 37.4281 24.4503 37.4962 24.3979C37.6353 24.2908 37.8169 24.1639 38.0528 24.0081C38.2882 23.8527 38.5516 23.6856 38.8558 23.4925C39.1548 23.3028 39.4866 23.0923 39.8344 22.8645C41.2256 21.9534 42.9538 20.7166 44.5078 18.9782L41.5256 16.3124C40.3151 17.6666 38.9248 18.6787 37.6429 19.5182C37.3225 19.7281 37.0139 19.924 36.7128 20.1151C36.4169 20.3028 36.1206 20.4906 35.8491 20.6699C35.3521 20.998 34.7453 21.4181 34.306 21.9095L37.2882 24.5753ZM44.5078 18.9782C46.0597 17.2421 47.1186 15.3626 47.8904 13.8569C48.0837 13.4797 48.2617 13.1203 48.4225 12.7957C48.586 12.4657 48.7282 12.1785 48.8613 11.9213C48.9947 11.6633 49.105 11.4625 49.1998 11.307C49.2462 11.2308 49.2841 11.1735 49.3139 11.1315C49.3285 11.1109 49.34 11.0957 49.3485 11.085C49.3569 11.0743 49.3612 11.0695 49.3611 11.0695L46.3788 8.40388C45.9423 8.89228 45.5864 9.54594 45.3083 10.0838C45.1561 10.3781 44.9974 10.6987 44.8381 11.0203C44.6762 11.3472 44.5097 11.6831 44.3307 12.0324C43.6132 13.4322 42.7382 14.9558 41.5256 16.3124L44.5078 18.9782ZM49.3611 11.0696C49.1726 11.2805 49.0056 11.297 49.3888 11.1442C49.6164 11.0534 50.1712 10.8544 50.6688 10.5758C51.2149 10.2701 51.8377 9.80014 52.3073 9.04235C52.7794 8.28052 53.0001 7.38386 53.0001 6.38033H49.0001C49.0001 6.78925 48.9151 6.92267 48.9072 6.93536C48.8969 6.95209 48.8655 7.00115 48.7146 7.08569C48.5152 7.19732 48.3302 7.25995 47.9068 7.42886C47.6389 7.53572 46.9096 7.81009 46.3789 8.4038L49.3611 11.0696ZM53.0001 6.38033C53.0001 3.97446 52.2515 2.27878 50.8241 0.681988L47.8419 3.3478C48.6594 4.26229 49.0001 5.02424 49.0001 6.38033H53.0001Z" fill="#101010" mask="url(#path-2-inside-1)"/>
<path d="M32.9825 27.7789L34.8965 29.9201C33.3498 31.6503 25.8854 40.0006 22.0941 44.2418C15.0328 52.1412 9.13583 55.0741 1.4248 55.1922C1.73347 54.2108 2.11899 53.116 2.58884 51.9555" stroke="#101010" stroke-width="2"/>
<path d="M19.4336 41.4343C13.5252 48.0438 7.91783 50.36 4.14723 50.85C5.43244 47.9933 7.20897 44.9075 9.57146 42.2646L27.0802 22.6779L31.6402 27.779L19.4336 41.4343Z" stroke="#101010" stroke-width="2"/>
<path d="M25.8355 47.3121C25.8039 47.2303 25.6094 46.7264 25.2846 45.8852L25.6995 45.7745L48.4774 39.6965C49.8414 46.6303 45.8085 53.0924 40.1291 54.6079C35.3907 55.8723 30.3907 54.023 27.3173 50.1792C26.7341 49.3052 26.2339 48.3461 25.8355 47.3121Z" stroke="#101010" stroke-width="2"/>
<mask id="path-7-inside-2" fill="white">
<path d="M49.8654 38.2913L49.2169 38.4642C50.5971 45.7829 46.5211 53.0409 39.9842 54.7852C35.2594 56.0459 30.0725 54.5647 26.5098 50.77C29.6642 55.4675 35.1111 57.8869 40.543 56.4375C47.5911 54.5569 52.0391 46.8502 50.7852 38.9642C50.7092 38.4861 50.2876 38.1786 49.8654 38.2913Z"/>
</mask>
<path d="M49.2169 38.4642L48.7014 36.5318L46.9075 37.0104L47.2516 38.8349L49.2169 38.4642ZM39.9842 54.7852L40.4999 56.7176L40.4999 56.7176L39.9842 54.7852ZM26.5098 50.77L27.9678 49.4011L24.8494 51.885L26.5098 50.77ZM40.543 56.4375L41.0586 58.3699L41.0587 58.3699L40.543 56.4375ZM50.7852 38.9642L52.7604 38.6501L52.7604 38.6499L50.7852 38.9642ZM49.3499 36.3588L48.7014 36.5318L49.7324 40.3967L50.3809 40.2237L49.3499 36.3588ZM47.2516 38.8349C48.4709 45.3006 44.8297 51.4223 39.4686 52.8528L40.4999 56.7176C48.2124 54.6596 52.7233 46.2653 51.1823 38.0936L47.2516 38.8349ZM39.4686 52.8528C35.4802 53.917 31.0444 52.6779 27.9678 49.4011L25.0517 52.139C29.1005 56.4514 35.0387 58.1748 40.4999 56.7176L39.4686 52.8528ZM24.8494 51.885C28.4163 57.1966 34.6958 60.0677 41.0586 58.3699L40.0274 54.5051C35.5265 55.7061 30.9121 53.7383 28.1701 49.655L24.8494 51.885ZM41.0587 58.3699C49.2592 56.1818 54.1474 47.3734 52.7604 38.6501L48.81 39.2782C49.9308 46.3269 45.923 52.932 40.0274 54.5051L41.0587 58.3699ZM52.7604 38.6499C52.5333 37.2225 51.1241 35.8852 49.3496 36.3589L50.3812 40.2236C49.451 40.4719 48.885 39.7497 48.8101 39.2784L52.7604 38.6499Z" fill="#101010" mask="url(#path-7-inside-2)"/>
</svg>
