<svg width="45" height="68" viewBox="0 0 45 68" fill="none" xmlns="http://www.w3.org/2000/svg">
<path d="M40.6502 51.1498L39.3598 50.6403V18.8608C39.3597 8.46097 31.7965 0 22.4999 0C13.2034 0 5.64005 8.46097 5.64005 18.8608V26.923C5.64005 34.4409 7.84021 40.027 9.68587 43.3894C10.8076 45.4329 11.9285 46.9183 12.7157 47.8467L4.34977 51.1498C1.74798 52.177 0 54.9409 0 58.0274V66.1823C0 66.7257 0.393781 67.1662 0.879499 67.1662C1.36522 67.1662 1.759 66.7257 1.759 66.1823V58.0273C1.759 57.3724 1.86747 56.7377 2.06694 56.1479L6.51428 60.4123C7.15361 61.0253 7.52019 61.9171 7.52019 62.859V66.1823C7.52019 66.7257 7.91397 67.1662 8.39969 67.1662C8.88541 67.1662 9.27919 66.7257 9.27919 66.1823V62.859C9.27919 61.342 8.68863 59.9057 7.65903 58.9183L2.9971 54.4482C3.51577 53.8085 4.1754 53.3053 4.93528 53.0053L8.64923 51.5389C10.948 57.7719 16.4276 61.9082 22.5001 61.9082C25.8407 61.9082 29.0641 60.6664 31.6833 58.3906C32.8777 60.7144 33.8409 63.0912 33.8409 66.1823C33.8409 66.7257 34.2346 67.1662 34.7204 67.1662C35.2062 67.1662 35.5999 66.7257 35.5999 66.1823C35.5999 61.8054 33.9248 58.7067 32.3046 55.7099C30.6153 52.5851 29.0196 49.6336 29.0196 45.1505V44.0989C29.0196 43.5556 28.6259 43.1151 28.1401 43.1151C27.6543 43.1151 27.2606 43.5556 27.2606 44.0989V45.1505C27.2606 48.2794 27.9564 50.7492 28.9008 52.9436C27.1507 54.7466 24.8952 55.734 22.4999 55.734C18.756 55.734 15.3769 53.2532 13.8643 49.4797L14.6438 49.172C16.4953 48.4409 17.7393 46.474 17.7393 44.2776V40.9259C19.2157 41.5723 20.8213 41.928 22.4999 41.928C29.1036 41.928 34.5844 36.4286 35.4734 29.309H35.996C36.572 29.309 37.1203 29.1475 37.6009 28.8648V66.1823C37.6009 66.7257 37.9946 67.1662 38.4804 67.1662C38.9663 67.1662 39.3599 66.7257 39.3599 66.1823V59.5741L42.9331 56.1479C43.1326 56.7377 43.241 57.3724 43.241 58.0273V66.1823C43.241 66.7257 43.6347 67.1662 44.1205 67.1662C44.6063 67.1662 45 66.7257 45 66.1823V58.0273C45 54.9409 43.252 52.177 40.6502 51.1498ZM22.4999 57.7019C25.1852 57.7019 27.7223 56.6552 29.7449 54.7345C30.0808 55.3974 30.4292 56.0434 30.7757 56.6843C28.4341 58.7891 25.5217 59.9406 22.4999 59.9406C17.171 59.9406 12.3601 56.3312 10.3109 50.8829L12.2021 50.1362C13.9663 54.6943 18.0116 57.7019 22.4999 57.7019ZM15.9804 44.2776H15.9803C15.9803 45.4507 15.4079 46.5169 14.5164 47.0814C13.0622 45.5145 8.04508 39.3873 7.45651 28.9429C7.89275 29.1804 8.37542 29.309 8.86958 29.309H9.52603C10.0954 33.873 12.5509 37.7705 15.9804 39.9809V44.2776ZM37.593 25.8692C37.5191 26.6946 36.8176 27.3412 35.996 27.3412H35.5993V27.2836C35.5993 26.7404 35.2058 26.2999 34.7202 26.2998C34.7201 26.2998 34.7199 26.2998 34.7198 26.2998C34.2343 26.2998 33.8407 26.7398 33.8403 27.283C33.8356 34.2733 28.7484 39.9603 22.4999 39.9603C16.2466 39.9603 11.1591 34.2691 11.1591 27.2737C11.1591 26.7303 10.7653 26.2898 10.2796 26.2898C9.79387 26.2898 9.40009 26.7303 9.40009 27.2737V27.3414H8.86958C8.45481 27.3414 8.05727 27.1438 7.77865 26.7994C7.49638 26.4505 7.36434 25.9973 7.40679 25.5232C7.48079 24.6977 8.18228 24.0511 9.00396 24.0511H9.33946H9.33958C10.3277 24.0511 11.2568 23.6206 11.9554 22.839C12.6542 22.0574 13.0391 21.018 13.0391 19.9125V18.861C13.0391 17.5041 13.5961 16.2576 14.5674 15.4413C14.9558 15.1149 15.034 14.4981 14.7423 14.0637C14.4505 13.6294 13.8991 13.5417 13.5109 13.8681C12.0932 15.0597 11.2802 16.8796 11.2802 18.861V19.9125C11.2802 20.4924 11.0784 21.0376 10.7118 21.4477C10.3454 21.8576 9.85802 22.0835 9.3397 22.0835H9.00408C8.42795 22.0835 7.87973 22.245 7.39905 22.5278V18.8611C7.39905 13.6553 9.51536 8.99279 12.8354 5.89147C14.925 11.0734 18.0155 15.5071 21.8205 18.7663C25.7996 22.1744 30.3808 24.0514 34.7203 24.0514H36.1302C36.545 24.0514 36.9426 24.2488 37.2212 24.5933C37.5034 24.9419 37.6354 25.3951 37.593 25.8692ZM37.6007 22.4807C37.1497 22.2227 36.646 22.0834 36.1301 22.0834H34.7203C30.7651 22.0834 26.5637 20.3504 22.8897 17.2036C19.2212 14.0613 16.2561 9.74618 14.2849 4.69311C16.6509 2.97027 19.4726 1.96776 22.4999 1.96776C30.8267 1.96776 37.6008 9.546 37.6008 18.8608V22.4807H37.6007ZM39.3597 56.9825V52.727L40.0647 53.0054C40.8245 53.3054 41.4841 53.8087 42.0028 54.4483L39.3597 56.9825Z" fill="black"/>
</svg>
