<svg width="50" height="50" viewBox="0 0 50 50" fill="none" xmlns="http://www.w3.org/2000/svg">
<path d="M42.9687 23.4961V22.6562C42.9687 20.377 42.0633 18.1912 40.4517 16.5796C38.84 14.9679 36.6542 14.0625 34.375 14.0625C32.0958 14.0625 29.9099 14.9679 28.2983 16.5796C26.6866 18.1912 25.7812 20.377 25.7812 22.6562V25.7812H22.6562C22.449 25.7812 22.2503 25.8636 22.1038 26.0101C21.9573 26.1566 21.875 26.3553 21.875 26.5625V29.6875C21.875 29.8947 21.9573 30.0934 22.1038 30.2399C22.2503 30.3864 22.449 30.4688 22.6562 30.4688H22.7344L23.4742 37.5H20.3125V3.90625C20.3125 3.28465 20.0655 2.68851 19.626 2.24897C19.1865 1.80943 18.5903 1.5625 17.9687 1.5625C17.3471 1.5625 16.751 1.80943 16.3114 2.24897C15.8719 2.68851 15.625 3.28465 15.625 3.90625V37.5H7.81248C7.39823 37.5005 7.00109 37.6653 6.70817 37.9582C6.41525 38.2511 6.25047 38.6483 6.24998 39.0625V41.3101L4.71082 47.4668C4.68203 47.582 4.67987 47.7022 4.7045 47.8183C4.72913 47.9345 4.7799 48.0435 4.85297 48.137C4.92603 48.2306 5.01946 48.3063 5.12615 48.3584C5.23285 48.4104 5.35001 48.4375 5.46873 48.4375H42.1875C42.3947 48.4375 42.5934 48.3552 42.7399 48.2087C42.8864 48.0622 42.9687 47.8634 42.9687 47.6562V44.5723L44.0715 34.0965C44.4492 33.8893 44.7639 33.5839 44.9823 33.2126C45.2008 32.8413 45.3149 32.4179 45.3125 31.9871V26.3672C45.3117 25.692 45.0782 25.0378 44.6512 24.5148C44.2243 23.9918 43.63 23.632 42.9687 23.4961ZM27.3437 22.6562C27.3437 21.7329 27.5256 20.8186 27.879 19.9655C28.2323 19.1124 28.7502 18.3373 29.4031 17.6844C30.056 17.0315 30.8312 16.5136 31.6842 16.1602C32.5373 15.8069 33.4516 15.625 34.375 15.625C35.2983 15.625 36.2127 15.8069 37.0657 16.1602C37.9188 16.5136 38.6939 17.0315 39.3468 17.6844C39.9997 18.3373 40.5177 19.1124 40.871 19.9655C41.2244 20.8186 41.4062 21.7329 41.4062 22.6562V23.4375H34.1797C33.5045 23.4383 32.8503 23.6718 32.3273 24.0988C31.8043 24.5257 31.4445 25.1199 31.3086 25.7812H27.3437V22.6562ZM23.4375 27.3438H31.25V28.9062H23.4375V27.3438ZM24.3053 30.4688H31.25V31.9883C31.2513 32.3071 31.3156 32.6226 31.4392 32.9165C31.5629 33.2105 31.7433 33.4771 31.9703 33.7011C32.1879 33.9184 32.4469 34.09 32.7318 34.2058C33.0168 34.3215 33.3221 34.379 33.6297 34.3749C34.1938 34.3649 34.7355 34.1526 35.1562 33.7767C35.5855 34.1619 36.142 34.3749 36.7187 34.3749C37.2955 34.3749 37.8519 34.1619 38.2812 33.7767C38.7104 34.1617 39.2666 34.3747 39.8432 34.3749C40.4198 34.375 40.9761 34.1623 41.4054 33.7774C41.7085 34.0498 42.0779 34.2375 42.4765 34.3218L41.4844 43.75H30.2974L29.6875 41.3101V39.0625C29.687 38.6483 29.5222 38.2511 29.2293 37.9582C28.9364 37.6653 28.5392 37.5005 28.125 37.5H25.0451L24.3053 30.4688ZM17.1875 3.90625C17.1875 3.69905 17.2698 3.50034 17.4163 3.35382C17.5628 3.20731 17.7615 3.125 17.9687 3.125C18.1759 3.125 18.3746 3.20731 18.5212 3.35382C18.6677 3.50034 18.75 3.69905 18.75 3.90625V37.5H17.1875V3.90625ZM7.81248 39.0625H28.125V40.625H7.81248V39.0625ZM9.59432 46.875L10.7662 42.1875H12.2806L11.1088 46.875H9.59432ZM7.64119 42.1875H9.15564L7.98377 46.875H6.46932L7.64119 42.1875ZM13.8912 42.1875H15.5213L14.9353 46.875H12.7193L13.8912 42.1875ZM16.5099 46.875L17.0959 42.1875H18.8416L19.4275 46.875H16.5099ZM21.0021 46.875L20.4162 42.1875H22.0463L23.2181 46.875H21.0021ZM24.8287 46.875L23.6568 42.1875H25.1713L26.3431 46.875H24.8287ZM27.9537 46.875L26.7818 42.1875H28.2963L29.4681 46.875H27.9537ZM41.4062 46.875H31.0787L30.6881 45.3125H41.4062V46.875ZM43.75 29.6875V31.9871C43.7536 32.193 43.679 32.3925 43.5413 32.5455C43.4035 32.6985 43.2129 32.7936 43.0078 32.8115C42.902 32.8168 42.7963 32.8006 42.697 32.7637C42.5978 32.7269 42.507 32.6703 42.4303 32.5973C42.3536 32.5243 42.2925 32.4365 42.2507 32.3392C42.209 32.2419 42.1875 32.1371 42.1875 32.0312V28.9062H40.625V32.0312C40.625 32.2385 40.5427 32.4372 40.3962 32.5837C40.2496 32.7302 40.0509 32.8125 39.8437 32.8125C39.6365 32.8125 39.4378 32.7302 39.2913 32.5837C39.1448 32.4372 39.0625 32.2385 39.0625 32.0312V28.9062H37.5V32.0312C37.5 32.2385 37.4177 32.4372 37.2712 32.5837C37.1246 32.7302 36.9259 32.8125 36.7187 32.8125C36.5115 32.8125 36.3128 32.7302 36.1663 32.5837C36.0198 32.4372 35.9375 32.2385 35.9375 32.0312V28.9062H34.375V32.0312C34.3752 32.2364 34.2947 32.4334 34.1507 32.5796C34.0068 32.7258 33.8112 32.8095 33.606 32.8125H33.5953C33.3963 32.8105 33.2063 32.7297 33.0668 32.5879C32.9871 32.5096 32.9236 32.4163 32.88 32.3135C32.8365 32.2106 32.8136 32.1001 32.8129 31.9884V26.3672C32.8133 26.0047 32.9574 25.6572 33.2137 25.4009C33.4701 25.1446 33.8176 25.0004 34.1801 25H42.3832C42.7457 25.0004 43.0932 25.1446 43.3495 25.4009C43.6058 25.6572 43.75 26.0047 43.7504 26.3672L43.75 29.6875Z" fill="black"/>
<path d="M39.8438 38.2812H38.2812V42.1875H39.8438V38.2812Z" fill="black"/>
<path d="M39.8438 35.1562H38.2812V36.7188H39.8438V35.1562Z" fill="black"/>
<path d="M9.41531 26.8096C9.46718 26.9651 9.56667 27.1004 9.69967 27.1962C9.83268 27.2921 9.99247 27.3436 10.1564 27.3436C10.3204 27.3436 10.4802 27.2921 10.6132 27.1962C10.7462 27.1004 10.8457 26.9651 10.8975 26.8096C11.1031 26.1977 11.4477 25.6417 11.9041 25.1852C12.3606 24.7288 12.9166 24.3843 13.5285 24.1787C13.6841 24.1269 13.8194 24.0274 13.9153 23.8944C14.0112 23.7613 14.0628 23.6015 14.0628 23.4375C14.0628 23.2735 14.0112 23.1137 13.9153 22.9806C13.8194 22.8476 13.6841 22.7481 13.5285 22.6963C12.9166 22.4907 12.3606 22.1462 11.9041 21.6898C11.4477 21.2333 11.1031 20.6773 10.8975 20.0654C10.8457 19.9099 10.7462 19.7746 10.6132 19.6788C10.4802 19.5829 10.3204 19.5314 10.1564 19.5314C9.99247 19.5314 9.83268 19.5829 9.69967 19.6788C9.56667 19.7746 9.46718 19.9099 9.41531 20.0654C9.20971 20.6773 8.86518 21.2333 8.40871 21.6898C7.95225 22.1462 7.39627 22.4907 6.78435 22.6963C6.62876 22.7481 6.49342 22.8476 6.39751 22.9806C6.30161 23.1137 6.25 23.2735 6.25 23.4375C6.25 23.6015 6.30161 23.7613 6.39751 23.8944C6.49342 24.0274 6.62876 24.1269 6.78435 24.1787C7.39627 24.3843 7.95225 24.7288 8.40871 25.1852C8.86518 25.6417 9.20971 26.1977 9.41531 26.8096ZM10.1564 22.028C10.5411 22.5759 11.018 23.0528 11.5658 23.4375C11.018 23.8222 10.5411 24.2991 10.1564 24.847C9.77177 24.2991 9.29489 23.8222 8.74705 23.4375C9.29489 23.0528 9.77177 22.5759 10.1564 22.028Z" fill="black"/>
<path d="M47.9035 13.3213C47.2916 13.1157 46.7356 12.7712 46.2791 12.3148C45.8227 11.8583 45.4781 11.3023 45.2725 10.6904C45.2207 10.5349 45.1212 10.3996 44.9882 10.3038C44.8552 10.2079 44.6954 10.1564 44.5314 10.1564C44.3675 10.1564 44.2077 10.2079 44.0747 10.3038C43.9417 10.3996 43.8422 10.5349 43.7903 10.6904C43.5847 11.3023 43.2402 11.8583 42.7837 12.3148C42.3273 12.7712 41.7713 13.1157 41.1594 13.3213C41.0038 13.3731 40.8684 13.4726 40.7725 13.6056C40.6766 13.7387 40.625 13.8985 40.625 14.0625C40.625 14.2265 40.6766 14.3863 40.7725 14.5194C40.8684 14.6524 41.0038 14.7519 41.1594 14.8037C41.7713 15.0093 42.3273 15.3538 42.7837 15.8103C43.2402 16.2667 43.5847 16.8227 43.7903 17.4346C43.8422 17.5901 43.9417 17.7254 44.0747 17.8212C44.2077 17.9171 44.3675 17.9686 44.5314 17.9686C44.6954 17.9686 44.8552 17.9171 44.9882 17.8212C45.1212 17.7254 45.2207 17.5901 45.2725 17.4346C45.4781 16.8227 45.8227 16.2667 46.2791 15.8103C46.7356 15.3538 47.2916 15.0093 47.9035 14.8037C48.0591 14.7519 48.1944 14.6524 48.2903 14.5194C48.3862 14.3863 48.4378 14.2265 48.4378 14.0625C48.4378 13.8985 48.3862 13.7387 48.2903 13.6056C48.1944 13.4726 48.0591 13.3731 47.9035 13.3213ZM44.5314 15.472C44.1468 14.9241 43.6699 14.4472 43.122 14.0625C43.6699 13.6778 44.1468 13.2009 44.5314 12.653C44.9161 13.2009 45.393 13.6778 45.9408 14.0625C45.393 14.4472 44.9161 14.9241 44.5314 15.472Z" fill="black"/>
<path d="M5.46892 36.7188C5.63288 36.7187 5.79269 36.6672 5.9257 36.5713C6.05871 36.4754 6.15818 36.3401 6.21004 36.1846C6.41563 35.5727 6.76017 35.0167 7.21663 34.5602C7.6731 34.1038 8.22908 33.7593 8.84099 33.5537C8.99659 33.5019 9.13193 33.4024 9.22783 33.2694C9.32374 33.1363 9.37535 32.9765 9.37535 32.8125C9.37535 32.6485 9.32374 32.4887 9.22783 32.3556C9.13193 32.2226 8.99659 32.1231 8.84099 32.0713C8.22908 31.8657 7.6731 31.5212 7.21663 31.0648C6.76017 30.6083 6.41563 30.0523 6.21004 29.4404C6.15816 29.2849 6.05868 29.1496 5.92567 29.0538C5.79266 28.9579 5.63287 28.9064 5.46892 28.9064C5.30498 28.9064 5.14519 28.9579 5.01218 29.0538C4.87917 29.1496 4.77968 29.2849 4.72781 29.4404C4.52221 30.0523 4.17768 30.6083 3.72122 31.0648C3.26475 31.5212 2.70877 31.8657 2.09685 32.0713C1.94126 32.1231 1.80592 32.2226 1.71002 32.3556C1.61411 32.4887 1.5625 32.6485 1.5625 32.8125C1.5625 32.9765 1.61411 33.1363 1.71002 33.2694C1.80592 33.4024 1.94126 33.5019 2.09685 33.5537C2.70877 33.7593 3.26475 34.1038 3.72122 34.5602C4.17768 35.0167 4.52221 35.5727 4.72781 36.1846C4.77966 36.3401 4.87914 36.4754 5.01215 36.5713C5.14516 36.6672 5.30496 36.7187 5.46892 36.7188ZM5.46892 31.403C5.85358 31.9509 6.33046 32.4278 6.8783 32.8125C6.33046 33.1972 5.85358 33.6741 5.46892 34.222C5.08427 33.6741 4.60739 33.1972 4.05955 32.8125C4.60739 32.4278 5.08427 31.9509 5.46892 31.403Z" fill="black"/>
</svg>
