<svg width="40" height="40" viewBox="0 0 40 40" fill="none" xmlns="http://www.w3.org/2000/svg">
<g clip-path="url(#clip0)">
<path d="M37.2973 15.7525C39.0402 14.01 40 11.6929 40 9.22809C40 6.76348 39.0402 4.44637 37.2973 2.70363C35.5548 0.960899 33.2377 0.000976562 30.773 0.000976562C28.3084 0.000976562 25.9913 0.960899 24.2487 2.70363C22.3834 4.56879 21.6089 6.63246 20.7889 8.81707C20.5387 9.48379 20.2859 10.1564 19.9985 10.838C15.3462 7.2216 10.7827 5.08543 7.65117 5.08543C6.26719 5.08543 5.1682 5.48262 4.385 6.26598C2.72883 7.92215 2.82625 11.0284 4.65906 15.0129C5.13313 16.0431 5.70938 17.1066 6.37563 18.1868C5.26648 18.7386 4.25867 19.4642 3.37117 20.3516C1.19727 22.5256 0 25.4162 0 28.4906C0 31.5652 1.19727 34.4556 3.37117 36.6296C5.54516 38.8036 8.4357 40.0008 11.5102 40.0008C14.5848 40.0008 17.4752 38.8035 19.6491 36.6296C20.5361 35.7426 21.2605 34.7362 21.8119 33.6293C25.0789 35.647 28.1241 36.7968 30.4675 36.7968C30.4678 36.7968 30.468 36.7968 30.4684 36.7968C31.8527 36.7966 32.9517 36.3993 33.735 35.6161C35.1405 34.2106 35.2954 31.798 34.1826 28.6394C33.2699 26.0489 31.5016 23.012 29.163 20.0027C29.8447 19.7153 30.5173 19.4625 31.1841 19.2123C33.3687 18.3921 35.4322 17.6177 37.2973 15.7525ZM18.4706 35.4509C16.6114 37.3103 14.1395 38.3341 11.5102 38.3341C8.88094 38.3341 6.40891 37.3103 4.54977 35.4509C2.69062 33.5918 1.6668 31.12 1.6668 28.4906C1.6668 25.8614 2.6907 23.3893 4.54992 21.5301C5.35437 20.7257 6.27422 20.0772 7.28969 19.5961C7.60258 20.0564 7.93039 20.5182 8.2725 20.9807C7.32406 21.3885 6.46789 21.9687 5.7282 22.7085C2.54008 25.8968 2.54008 31.0846 5.72828 34.273C7.32234 35.8668 9.41633 36.6638 11.5103 36.6638C13.6043 36.6638 15.6984 35.8668 17.2927 34.2729C18.0324 33.5327 18.6111 32.6761 19.0178 31.73C19.4819 32.0736 19.9441 32.402 20.4034 32.7145C19.9227 33.7284 19.2748 34.6469 18.4706 35.4509ZM8.97602 22.4914C9.0857 22.4454 9.21648 22.4068 9.34453 22.3744C10.524 23.8496 11.839 25.3178 13.2611 26.7399C14.6972 28.176 16.1688 29.4925 17.6363 30.6664C17.5946 30.7911 17.5591 30.8964 17.5452 30.9374C17.2188 31.7449 16.7372 32.4705 16.1137 33.0944C14.8444 34.3635 13.1775 34.998 11.5102 34.9979C9.84313 34.9977 8.17562 34.3632 6.90664 33.0944C4.36836 30.5561 4.36836 26.4255 6.90664 23.8872C7.50836 23.2854 8.20484 22.8156 8.97602 22.4914ZM32.6105 29.1933C33.4825 31.6682 33.4632 33.5307 32.5565 34.4375C32.097 34.897 31.3946 35.1299 30.4682 35.1301C30.468 35.1301 30.4677 35.1301 30.4676 35.1301C28.2643 35.1301 25.2227 33.879 21.9544 31.7429C21.9187 31.7154 21.8811 31.6904 21.8408 31.6686C19.4117 30.0685 16.8616 27.9832 14.4398 25.5614C12.9496 24.0712 11.583 22.5322 10.3751 20.9929C10.3534 20.9602 10.329 20.93 10.3031 20.9008C9.585 19.9807 8.92383 19.0609 8.32727 18.1515C8.30711 18.1148 8.28414 18.0803 8.25945 18.0475C7.42945 16.7729 6.7268 15.5197 6.17344 14.3164C4.67523 11.0598 4.45313 8.55527 5.56375 7.44473C6.02313 6.9852 6.72539 6.7523 7.65141 6.7523C10.4482 6.7523 14.8626 8.90019 19.276 12.389C18.4999 13.8929 17.568 15.2143 16.3971 16.4719C16.3562 16.5158 16.3137 16.56 16.272 16.6039C16.229 16.6493 16.1867 16.6948 16.143 16.7399C16.0559 16.8302 15.9671 16.9206 15.8765 17.0114C15.7264 17.1613 15.6435 17.3575 15.6334 17.5586C15.6255 17.715 15.6614 17.8743 15.7439 18.0172C16.2598 18.9112 16.8941 19.7859 17.6095 20.6065C18.8768 22.06 20.4007 23.3433 21.9841 24.2575C22.0148 24.2753 22.0466 24.2901 22.0787 24.3036C22.0821 24.305 22.0853 24.3065 22.0887 24.3078C22.1211 24.3211 22.1538 24.3321 22.1871 24.3411C22.1879 24.3412 22.1885 24.3412 22.1891 24.3414C22.223 24.3503 22.2571 24.3571 22.2916 24.3615C22.2926 24.3617 22.2937 24.3618 22.2948 24.362C22.3289 24.3664 22.3632 24.3685 22.3975 24.3685C22.3986 24.3686 22.3996 24.3688 22.4005 24.3688C22.4026 24.3688 22.4046 24.3685 22.4066 24.3685C22.4295 24.3683 22.4523 24.3671 22.4751 24.3652C22.4788 24.3649 22.4823 24.3645 22.486 24.364C22.5102 24.3616 22.5344 24.3582 22.5583 24.3536C22.5596 24.3533 22.5609 24.3532 22.5621 24.3529C22.6143 24.3425 22.6655 24.3274 22.7152 24.3071C22.7164 24.3067 22.7176 24.306 22.7188 24.3055C22.7412 24.2963 22.763 24.286 22.7846 24.2747C22.7889 24.2726 22.7931 24.2701 22.7973 24.2679C22.8162 24.2579 22.8345 24.2469 22.8525 24.2352C22.8572 24.2323 22.8616 24.2293 22.8662 24.2263C22.8848 24.2138 22.9029 24.2004 22.9206 24.1863C22.9237 24.1839 22.9268 24.1817 22.9297 24.1793C22.9505 24.1621 22.9707 24.1443 22.9901 24.125C24.4113 22.7038 25.893 21.6125 27.6124 20.7254C29.9599 23.6937 31.7257 26.6819 32.6105 29.1933ZM24.4332 20.7138C24.4214 20.7223 24.4096 20.7309 24.3978 20.7393C24.3144 20.7993 24.2309 20.8601 24.1471 20.9222C24.1161 20.9451 24.0851 20.9685 24.0541 20.9918C23.9909 21.0393 23.9278 21.0872 23.8644 21.1361C23.8229 21.1682 23.7813 21.2003 23.7401 21.2326C23.6879 21.2735 23.6356 21.315 23.5833 21.3568C23.5352 21.3952 23.4871 21.4336 23.4393 21.4727C23.394 21.5096 23.3485 21.5475 23.303 21.5852C23.2504 21.6288 23.1977 21.6723 23.1454 21.7167C23.1033 21.7521 23.061 21.7889 23.0189 21.8253C22.9648 21.8719 22.9104 21.9182 22.8565 21.9656C22.8084 22.0079 22.7601 22.0517 22.7118 22.0948C22.6647 22.1371 22.6173 22.1786 22.5704 22.2214C22.4748 22.3086 22.3789 22.3974 22.2828 22.488C21.316 21.8684 20.3855 21.1025 19.547 20.2493C18.9063 19.5975 18.3202 18.8946 17.8132 18.1655C17.7102 18.0174 17.6093 17.8685 17.513 17.7184C17.6775 17.5444 17.8369 17.3691 17.9929 17.1925C18.0048 17.1791 18.0171 17.1656 18.0289 17.1523C18.0923 17.0804 18.1541 17.0082 18.2161 16.9357C18.2364 16.9119 18.2573 16.8882 18.2773 16.8644C18.3321 16.7998 18.3859 16.7346 18.4397 16.6696C18.4666 16.637 18.4937 16.6045 18.5204 16.5719C18.5674 16.5145 18.6136 16.4565 18.6597 16.3987C18.6933 16.3565 18.727 16.3146 18.7598 16.2724C18.7985 16.2231 18.837 16.1734 18.8751 16.1238C18.917 16.0693 18.9584 16.0149 18.9993 15.9605C19.0283 15.9219 19.0571 15.8833 19.0858 15.8447C19.1409 15.7703 19.195 15.696 19.2483 15.6219C19.263 15.6016 19.2778 15.5812 19.2923 15.5609C20.8644 13.3576 21.6413 11.2895 22.3495 9.40262C23.137 7.30434 23.8171 5.49223 25.4274 3.88215C26.8552 2.4541 28.7537 1.66754 30.7731 1.66754C32.7925 1.66754 34.691 2.4541 36.1188 3.88199C37.5469 5.30996 38.3332 7.20855 38.3332 9.22777C38.3332 11.2472 37.5468 13.1458 36.1188 14.5736C34.5088 16.1836 32.6966 16.8639 30.5984 17.6514C28.7095 18.3606 26.639 19.1383 24.4332 20.7138Z" fill="black"/>
<path d="M33.709 4.11556C31.4071 2.79079 28.486 3.17915 26.6048 5.06025C26.5171 5.14814 26.4308 5.23884 26.3482 5.32978C26.0388 5.67048 26.0643 6.19751 26.405 6.50697C26.5646 6.65197 26.765 6.72345 26.965 6.72345C27.1918 6.72345 27.4178 6.63134 27.5821 6.45033C27.6471 6.37861 27.7154 6.30704 27.784 6.23822C29.1329 4.88946 31.2276 4.61071 32.8778 5.56009C33.2767 5.78993 33.7862 5.65236 34.0158 5.25337C34.2454 4.85439 34.1079 4.34509 33.709 4.11556Z" fill="black"/>
<path d="M26.0844 7.10426C25.68 6.88418 25.174 7.0341 24.9543 7.43848C24.9472 7.45145 24.9394 7.46684 24.9348 7.47637C24.729 7.88801 24.8959 8.38863 25.3075 8.59441C25.4272 8.65433 25.5543 8.68269 25.6796 8.68269C25.9853 8.68269 26.2796 8.51394 26.4256 8.22176C26.4264 8.22027 26.4278 8.2173 26.4293 8.21426C26.6335 7.81332 26.4822 7.32035 26.0844 7.10426Z" fill="black"/>
<path d="M24.7456 29.5573C24.3506 29.3211 23.8388 29.4499 23.6026 29.8447C23.3664 30.2397 23.4951 30.7515 23.89 30.9877C24.425 31.3077 24.9596 31.6052 25.4787 31.8723C25.893 32.0857 26.9717 32.5914 28.0893 32.9788C28.1797 33.01 28.2718 33.025 28.3623 33.025C28.7076 33.025 29.0304 32.8089 29.1497 32.4643C29.3004 32.0293 29.07 31.5546 28.6351 31.4039C27.606 31.0471 26.6194 30.585 26.2413 30.3902C25.7534 30.1393 25.2501 29.8591 24.7456 29.5573Z" fill="black"/>
<path d="M30.679 33.4725C30.7169 33.4725 30.7553 33.4699 30.7939 33.4646C30.8312 33.4594 30.8688 33.4531 30.9045 33.446C31.3562 33.3578 31.6508 32.9201 31.5626 32.4685C31.4744 32.0168 31.0368 31.7217 30.585 31.8103C30.579 31.8114 30.5727 31.8125 30.5664 31.8136C30.1104 31.8764 29.7918 32.2968 29.8546 32.7529C29.9121 33.1702 30.2693 33.4725 30.679 33.4725Z" fill="black"/>
</g>
<defs>
<clipPath id="clip0">
<rect width="40" height="40" fill="white"/>
</clipPath>
</defs>
</svg>
