<svg width="50" height="47" viewBox="0 0 50 47" fill="none" xmlns="http://www.w3.org/2000/svg">
<rect x="1" y="11" width="48" height="34.2069" rx="9" stroke="black" stroke-width="2"/>
<path d="M12.207 8.8186H17.1036V10.6761H12.207V8.8186Z" stroke="black" stroke-width="2"/>
<path d="M32.8965 8.8186H37.7931V10.6761H32.8965V8.8186Z" stroke="black" stroke-width="2"/>
<path d="M36.0696 3.96104V6.81856H34.6213V4.92542C34.6213 4.43838 34.4494 3.95182 34.1144 3.57705C33.7761 3.19859 33.2916 2.96104 32.7592 2.96104H17.242C16.7096 2.96104 16.2252 3.19859 15.8869 3.57704C15.5518 3.95182 15.3799 4.43838 15.3799 4.92542V6.81856H13.9316V3.96104C13.9316 3.16923 14.2138 2.42931 14.6872 1.89981C15.1572 1.37398 15.7691 1.10352 16.3799 1.10352H33.6213C34.2321 1.10352 34.844 1.37398 35.3141 1.89981L36.0596 1.23336L35.3141 1.89981C35.7874 2.42931 36.0696 3.16923 36.0696 3.96104Z" stroke="black" stroke-width="2"/>
<path d="M33.1638 25.0274V31.0547H27.7759V37.0821H22.3879V31.0547H17V25.0274H22.3879V19H27.7759V25.0274H33.1638Z" fill="black"/>
</svg>
