<svg width="20" height="21" viewBox="0 0 20 21" fill="none" xmlns="http://www.w3.org/2000/svg">
<path d="M0 1.63188C0 1.45507 0.0702401 1.2855 0.195268 1.16047C0.320296 1.03545 0.489871 0.96521 0.666687 0.96521H2.66675C2.81546 0.965251 2.95989 1.01501 3.07707 1.10658C3.19425 1.19814 3.27745 1.32626 3.31344 1.47054L3.85345 3.63188H19.3339C19.4318 3.63197 19.5285 3.65361 19.6171 3.69528C19.7057 3.73694 19.784 3.7976 19.8465 3.87295C19.909 3.94829 19.9541 4.03648 19.9787 4.13123C20.0032 4.22599 20.0066 4.32499 19.9886 4.42121L17.9886 15.0879C17.96 15.2406 17.8789 15.3786 17.7593 15.478C17.6398 15.5773 17.4893 15.6317 17.3339 15.6319H5.3335C5.17807 15.6317 5.02758 15.5773 4.90803 15.478C4.78849 15.3786 4.70741 15.2406 4.67881 15.0879L2.68008 4.44121L2.14673 2.29854H0.666687C0.489871 2.29854 0.320296 2.22831 0.195268 2.10328C0.0702401 1.97826 0 1.80869 0 1.63188ZM6.66687 15.6319C5.95961 15.6319 5.28131 15.9128 4.7812 16.4129C4.28108 16.913 4.00012 17.5913 4.00012 18.2985C4.00012 19.0058 4.28108 19.6841 4.7812 20.1842C5.28131 20.6843 5.95961 20.9652 6.66687 20.9652C7.37414 20.9652 8.05244 20.6843 8.55255 20.1842C9.05266 19.6841 9.33362 19.0058 9.33362 18.2985C9.33362 17.5913 9.05266 16.913 8.55255 16.4129C8.05244 15.9128 7.37414 15.6319 6.66687 15.6319ZM16.0005 15.6319C15.2932 15.6319 14.6149 15.9128 14.1148 16.4129C13.6147 16.913 13.3337 17.5913 13.3337 18.2985C13.3337 19.0058 13.6147 19.6841 14.1148 20.1842C14.6149 20.6843 15.2932 20.9652 16.0005 20.9652C16.7078 20.9652 17.3861 20.6843 17.8862 20.1842C18.3863 19.6841 18.6672 19.0058 18.6672 18.2985C18.6672 17.5913 18.3863 16.913 17.8862 16.4129C17.3861 15.9128 16.7078 15.6319 16.0005 15.6319ZM6.66687 16.9652C7.02051 16.9652 7.35965 17.1057 7.60971 17.3557C7.85977 17.6058 8.00025 17.9449 8.00025 18.2985C8.00025 18.6522 7.85977 18.9913 7.60971 19.2414C7.35965 19.4914 7.02051 19.6319 6.66687 19.6319C6.31324 19.6319 5.97409 19.4914 5.72404 19.2414C5.47398 18.9913 5.3335 18.6522 5.3335 18.2985C5.3335 17.9449 5.47398 17.6058 5.72404 17.3557C5.97409 17.1057 6.31324 16.9652 6.66687 16.9652ZM16.0005 16.9652C16.3541 16.9652 16.6933 17.1057 16.9433 17.3557C17.1934 17.6058 17.3339 17.9449 17.3339 18.2985C17.3339 18.6522 17.1934 18.9913 16.9433 19.2414C16.6933 19.4914 16.3541 19.6319 16.0005 19.6319C15.6469 19.6319 15.3077 19.4914 15.0577 19.2414C14.8076 18.9913 14.6671 18.6522 14.6671 18.2985C14.6671 17.9449 14.8076 17.6058 15.0577 17.3557C15.3077 17.1057 15.6469 16.9652 16.0005 16.9652Z" fill="#6C727C"/>
</svg>
