<svg width="26" height="25" viewBox="0 0 26 25" fill="none" xmlns="http://www.w3.org/2000/svg">
<g clip-path="url(#clip0)">
<path d="M5.54146 15.1077L4.6711 18.3563L1.48995 18.4236C0.539252 16.6605 0 14.6434 0 12.4999C0 10.4271 0.504187 8.47236 1.39789 6.75122H1.39858L4.2307 7.27036L5.47134 10.085C5.21167 10.8419 5.07015 11.6544 5.07015 12.4999C5.07024 13.4174 5.23648 14.2966 5.54146 15.1077Z" fill="#FBBB00"/>
<path d="M24.7862 10.1648C24.9297 10.9209 25.0046 11.7019 25.0046 12.5C25.0046 13.3949 24.9105 14.2678 24.7312 15.1099C24.1226 17.9752 22.5324 20.4773 20.3294 22.2479L20.3287 22.2472L16.7615 22.0652L16.2566 18.9141C17.7184 18.057 18.8608 16.7156 19.4626 15.1099H12.7773V10.1648H19.5601H24.7862Z" fill="#518EF8"/>
<path d="M20.3286 22.2473L20.3293 22.248C18.1868 23.9698 15.4651 25 12.5024 25C7.74129 25 3.60187 22.3394 1.49023 18.4238L5.54175 15.1079C6.59754 17.9252 9.31573 19.9307 12.5024 19.9307C13.8721 19.9307 15.1553 19.5605 16.2565 18.9142L20.3286 22.2473Z" fill="#28B446"/>
<path d="M20.4827 2.87773L16.4326 6.19297C15.293 5.48076 13.9459 5.06934 12.5027 5.06934C9.24386 5.06934 6.47483 7.16685 5.47193 10.0852L1.39912 6.75137H1.39844C3.47916 2.74038 7.67079 0 12.5027 0C15.5361 0 18.3175 1.08037 20.4827 2.87773Z" fill="#F14336"/>
</g>
<defs>
<clipPath id="clip0">
<rect width="25.0042" height="25" fill="white"/>
</clipPath>
</defs>
</svg>
