<svg width="200" height="216" viewBox="0 0 200 216" fill="none" xmlns="http://www.w3.org/2000/svg">
<g clip-path="url(#clip0)">
<path d="M200 48.5745V64.169L186.915 57.8369L181.604 55.2664L177.472 53.2671L156.228 42.985L152.096 40.9857L146.785 38.4152L70.3628 1.42822H102.586L200 48.5745Z" fill="#F2F2F2"/>
<path d="M171.762 37.701C181.205 37.701 188.86 29.2614 188.86 18.8505C188.86 8.43966 181.205 0 171.762 0C162.319 0 154.664 8.43966 154.664 18.8505C154.664 29.2614 162.319 37.701 171.762 37.701Z" fill="#1A2854"/>
<path d="M180.829 106.82C180.214 106.82 179.613 106.619 179.101 106.242C178.59 105.866 178.192 105.331 177.956 104.704C177.721 104.078 177.66 103.389 177.779 102.724C177.899 102.059 178.195 101.449 178.63 100.969C179.065 100.49 179.619 100.163 180.222 100.031C180.825 99.8989 181.45 99.9668 182.018 100.226C182.586 100.486 183.072 100.925 183.413 101.489C183.755 102.052 183.937 102.715 183.937 103.393C183.936 104.301 183.609 105.173 183.026 105.815C182.443 106.458 181.653 106.819 180.829 106.82ZM180.829 100.537C180.316 100.537 179.815 100.704 179.389 101.018C178.963 101.332 178.631 101.778 178.435 102.3C178.239 102.822 178.188 103.396 178.288 103.95C178.388 104.504 178.634 105.013 178.997 105.412C179.359 105.812 179.821 106.084 180.323 106.194C180.826 106.304 181.347 106.248 181.82 106.031C182.293 105.815 182.698 105.449 182.983 104.979C183.267 104.51 183.419 103.958 183.419 103.393C183.418 102.635 183.145 101.909 182.66 101.374C182.174 100.839 181.515 100.537 180.829 100.537Z" fill="#3F3D56"/>
<path d="M6.73575 59.693H0V52.2671H6.73575V59.693ZM0.518135 59.1218H6.21762V52.8383H0.518135V59.1218Z" fill="#3F3D56"/>
<path d="M106.995 8.56805H100.259V1.14209H106.995V8.56805ZM100.777 7.99682H106.476V1.71332H100.777V7.99682Z" fill="#3F3D56"/>
<path d="M78.8862 46.4463H30.6997V89.574H78.8862V46.4463Z" fill="#1A2854"/>
<path d="M164.119 102.713H30.6997V107.283H164.119V102.713Z" fill="#F2F2F2"/>
<path d="M75.7769 87.2892H27.0723V43.5903H75.7769V87.2892ZM27.5904 86.718H75.2588V44.1616H27.5904V86.718Z" fill="#3F3D56"/>
<path d="M144.689 58.2998H98.0566V62.8696H144.689V58.2998Z" fill="#1A2854"/>
<path opacity="0.3" d="M164.119 70.5806H98.0566V75.1504H164.119V70.5806Z" fill="#1A2854"/>
<path d="M141.581 60.5849H94.4307V55.4438H141.581V60.5849ZM94.9488 60.0137H141.063V56.0151H94.9488V60.0137Z" fill="#3F3D56"/>
<path d="M161.011 72.8656H94.4307V67.7246H161.011V72.8656ZM94.9488 72.2944H160.493V68.2958H94.9488V72.2944Z" fill="#3F3D56"/>
<path d="M161.01 104.997H27.0723V99.8564H161.01V104.997ZM27.5904 104.426H160.492V100.428H27.5904V104.426Z" fill="#3F3D56"/>
<path d="M164.119 116.993H30.6997V121.563H164.119V116.993Z" fill="#F2F2F2"/>
<path d="M161.01 119.278H27.0723V114.137H161.01V119.278ZM27.5904 118.707H160.492V114.708H27.5904V118.707Z" fill="#3F3D56"/>
<path d="M164.119 131.274H30.6997V135.844H164.119V131.274Z" fill="#F2F2F2"/>
<path d="M161.01 133.559H27.0723V128.417H161.01V133.559ZM27.5904 132.987H160.492V128.989H27.5904V132.987Z" fill="#3F3D56"/>
<path d="M164.119 145.554H30.6997V150.124H164.119V145.554Z" fill="#F2F2F2"/>
<path d="M161.01 147.839H27.0723V142.698H161.01V147.839ZM27.5904 147.268H160.492V143.269H27.5904V147.268Z" fill="#3F3D56"/>
<path d="M164.119 159.835H30.6997V164.405H164.119V159.835Z" fill="#F2F2F2"/>
<path d="M161.01 162.121H27.0723V156.979H161.01V162.121ZM27.5904 161.549H160.492V157.551H27.5904V161.549Z" fill="#3F3D56"/>
<path d="M164.119 174.116H30.6997V178.686H164.119V174.116Z" fill="#F2F2F2"/>
<path d="M161.01 176.401H27.0723V171.26H161.01V176.401ZM27.5904 175.83H160.492V171.831H27.5904V175.83Z" fill="#3F3D56"/>
<path d="M172.151 203.967H19.4312V18.457H172.151V203.967ZM19.9493 203.396H171.633V19.0283H19.9493V203.396Z" fill="#3F3D56"/>
<path d="M16.1665 207.391C16.1574 207.394 16.1487 207.399 16.1406 207.405C16.4489 206.671 16.7365 205.928 16.9981 205.174C17.0292 205.086 17.0577 204.994 17.0888 204.906C17.0862 204.929 17.0862 204.951 17.0836 204.977C17.0759 205.12 17.0655 205.263 17.0551 205.408C17.0396 205.634 17.0266 205.863 17.024 206.091C17.0215 206.162 17.0215 206.231 17.0215 206.302C17.0223 206.581 17.0483 206.858 17.0992 207.131H17.0888C17.024 207.136 16.9645 207.139 16.9023 207.151C16.658 207.187 16.4197 207.262 16.195 207.373C16.185 207.378 16.1755 207.384 16.1665 207.391Z" fill="url(#paint0_linear)"/>
<path d="M21.0709 95.2067C21.0987 96.3993 21.4652 97.5549 21.5227 98.7453C18.3367 98.9201 15.1943 97.2163 12.04 97.7383C12.9217 97.1092 13.3933 95.9756 13.6707 94.8594C14.0241 93.4193 14.1296 91.919 13.9817 90.4361C13.9733 90.3537 13.96 90.272 13.9421 90.1914C13.8252 89.6082 13.5221 88.7825 13.6033 88.3238C13.7103 87.7166 14.2294 87.8367 14.697 87.8716C16.1229 87.9914 17.5422 88.1933 18.9489 88.4767C19.3155 88.5466 22.8858 89.5296 22.9393 89.4269C22.3135 90.5337 21.7955 91.7103 21.3939 92.9371C21.171 93.6682 21.0618 94.4355 21.0709 95.2067Z" fill="#A0616A"/>
<path d="M52.578 91.5214C52.3043 91.9332 51.9764 92.2976 51.6052 92.6027C51.3634 92.8211 51.1158 93.0439 50.8562 93.2449C50.394 93.6382 49.8433 93.8851 49.2633 93.9592C48.5044 94.016 46.8936 93.5245 46.422 92.808C46.2232 92.4479 46.1286 92.0297 46.1506 91.6088C46.1585 91.0381 46.2467 90.4721 46.4121 89.9312C46.7077 89.0509 47.1218 88.2247 47.6405 87.4804C48.1894 86.6394 48.7996 85.8116 49.6159 85.3026C49.8879 85.1421 50.1685 84.9999 50.456 84.8767C50.9514 84.6539 51.4447 84.4289 51.94 84.2061C52.0243 84.1607 52.1159 84.1339 52.2095 84.1274C52.6077 84.1318 52.6811 84.8024 52.4552 85.165C52.0034 85.8946 50.987 86.0977 50.7017 86.9256C50.9421 86.9338 51.174 87.0257 51.364 87.1882C51.5541 87.3506 51.6926 87.5753 51.7597 87.8299C51.7709 87.9651 51.8209 88.0929 51.9024 88.1947C52.0332 88.3105 52.2372 88.2449 52.3858 88.3323C52.6493 88.4874 52.5344 88.9199 52.5622 89.2475C52.6269 89.5316 52.7178 89.8075 52.8336 90.071C52.8895 90.3187 52.8956 90.5769 52.8515 90.8274C52.8073 91.078 52.714 91.3149 52.578 91.5214Z" fill="#A0616A"/>
<path d="M8.66113 211.1C8.9064 210.83 9.30704 210.876 9.64951 210.935C11.4878 211.256 13.3456 211.422 15.2067 211.431C15.4397 210.177 14.7633 208.957 14.5454 207.7C14.5139 207.375 14.4398 207.057 14.3253 206.756C14.0632 206.202 13.472 205.948 12.9172 205.819C11.9157 205.586 10.3502 205.175 9.7909 206.292C9.11978 207.631 8.90507 209.609 8.66113 211.1Z" fill="#65617D"/>
<path d="M29.023 206.362C28.2681 206.93 27.331 207.107 26.4235 207.236C25.5141 207.362 24.5809 207.461 23.7586 207.906C23.0493 208.293 22.451 208.926 21.7 209.204C21.0017 209.415 20.2662 209.428 19.5622 209.241C18.7181 209.066 17.8186 208.728 17.3629 207.924C16.9567 207.21 17.0003 206.303 17.0558 205.462C17.1212 204.512 17.1852 203.56 17.248 202.607C17.2449 202.365 17.3003 202.127 17.4085 201.917C18.0187 200.936 19.5027 202.328 20.2973 202.325C21.5554 202.323 22.9067 201.572 23.8141 200.652C23.8936 200.561 23.9859 200.484 24.0875 200.425C24.4462 200.248 24.8048 200.576 25.1238 200.862C25.1594 200.895 25.1951 200.927 25.2308 200.958C25.9658 201.6 26.9525 201.731 27.86 201.991C28.7694 202.251 29.7422 202.775 30.0236 203.763C30.0418 203.825 30.0564 203.888 30.0672 203.953C30.2316 204.861 29.7304 205.829 29.023 206.362Z" fill="#3F3D56"/>
<path d="M29.023 206.362C28.2681 206.93 27.331 207.107 26.4235 207.236C25.5141 207.362 24.5809 207.461 23.7586 207.906C23.0493 208.293 22.451 208.926 21.7 209.204C21.0017 209.415 20.2662 209.428 19.5622 209.241C18.7181 209.066 17.8186 208.728 17.3629 207.924C16.9567 207.21 17.0003 206.303 17.0558 205.462C17.1212 204.512 17.1852 203.56 17.248 202.607C17.2449 202.365 17.3003 202.127 17.4085 201.917C18.0187 200.936 19.5027 202.328 20.2973 202.325C21.5554 202.323 22.9067 201.572 23.8141 200.652C23.8936 200.561 23.9859 200.484 24.0875 200.425C24.4462 200.248 24.8048 200.576 25.1238 200.862C25.1594 200.895 25.1951 200.927 25.2308 200.958C25.9658 201.6 26.9525 201.731 27.86 201.991C28.7694 202.251 29.7422 202.775 30.0236 203.763C30.0418 203.825 30.0564 203.888 30.0672 203.953C30.2316 204.861 29.7304 205.829 29.023 206.362Z" fill="#2F2E41"/>
<path d="M29.023 206.682C28.2681 207.25 27.331 207.427 26.4235 207.556C25.5141 207.682 24.5809 207.781 23.7586 208.226C23.0493 208.613 22.451 209.246 21.7 209.524C21.0017 209.735 20.2662 209.748 19.5622 209.561C18.6639 209.351 17.875 208.764 17.3629 207.924C16.9567 207.21 17.0003 206.303 17.0558 205.462C17.1212 204.512 17.1852 203.56 17.248 202.607C17.2449 202.365 17.3003 202.127 17.4085 201.917C18.0187 200.936 19.5027 202.328 20.2973 202.325C21.5554 202.323 22.9067 201.572 23.8141 200.652C23.8936 200.561 23.9859 200.484 24.0875 200.425C24.4462 200.248 24.8048 200.576 25.1238 200.862C24.914 201.575 24.6167 202.252 24.2401 202.876C23.9361 203.402 23.5296 203.846 23.05 204.177C22.5705 204.507 22.0301 204.716 21.4682 204.787C20.9055 204.833 20.329 204.711 19.7841 204.87C19.2412 205.03 18.734 205.643 18.9262 206.227C19.1144 206.795 19.7802 206.919 20.329 206.952C21.0977 206.998 21.8863 207.039 22.6154 206.775C23.0612 206.611 23.4694 206.34 23.9033 206.141C25.7479 205.298 28.0779 205.77 29.6016 204.346C29.7461 204.2 29.9019 204.069 30.0672 203.953C30.4661 204.873 29.7304 206.149 29.023 206.682Z" fill="#E8EAF2"/>
<path opacity="0.05" d="M29.023 206.682C28.2681 207.25 27.331 207.427 26.4235 207.556C25.5141 207.682 24.5809 207.781 23.7586 208.226C23.0493 208.613 22.451 209.246 21.7 209.524C21.0017 209.735 20.2662 209.748 19.5622 209.561C18.6639 209.351 17.875 208.764 17.3629 207.924C16.9567 207.21 17.0003 206.303 17.0558 205.462C17.1212 204.512 17.1852 203.56 17.248 202.607C17.2449 202.365 17.3003 202.127 17.4085 201.917C18.0187 200.936 19.5027 202.328 20.2973 202.325C21.5554 202.323 22.9067 201.572 23.8141 200.652C23.8936 200.561 23.9859 200.484 24.0875 200.425C24.4462 200.248 24.8048 200.576 25.1238 200.862C24.914 201.575 24.6167 202.252 24.2401 202.876C23.9361 203.402 23.5296 203.846 23.05 204.177C22.5705 204.507 22.0301 204.716 21.4682 204.787C20.9055 204.833 20.329 204.711 19.7841 204.87C19.2412 205.03 18.734 205.643 18.9262 206.227C19.1144 206.795 19.7802 206.919 20.329 206.952C21.0977 206.998 21.8863 207.039 22.6154 206.775C23.0612 206.611 23.4694 206.34 23.9033 206.141C25.7479 205.298 28.0779 205.77 29.6016 204.346C29.7461 204.2 29.9019 204.069 30.0672 203.953C30.4661 204.873 29.7304 206.149 29.023 206.682Z" fill="black"/>
<path d="M9.00573 144.45C8.41776 147.632 8.97527 150.941 10.5604 153.677C10.9926 154.416 11.499 155.109 11.8239 155.911C12.0369 156.483 12.2019 157.076 12.3171 157.681L13.7174 164.071C14.0954 165.797 14.4762 167.555 14.3627 169.325C14.2835 170.559 14.0015 171.946 14.6911 172.921C14.8574 173.107 14.9978 173.32 15.1077 173.551C15.1764 173.823 15.1788 174.109 15.1146 174.382C14.4061 179.021 13.8807 183.871 15.1604 188.36C16.3203 192.428 16.3865 196.935 17.3727 201.058C17.4948 201.569 17.6345 202.107 17.9853 202.467C18.2489 202.711 18.5653 202.877 18.9038 202.948C20.3571 203.329 21.8919 202.882 23.2473 202.19C24.1999 201.703 25.2253 200.85 25.1439 199.696C25.1052 199.147 24.8143 198.666 24.6169 198.16C24.2297 197.168 24.1986 196.06 24.0942 194.986C23.8318 192.29 23.0778 189.686 22.508 187.048C21.9381 184.41 21.551 181.654 22.033 178.995C23.0187 173.494 24.5964 168.143 26.7327 163.055C26.8256 162.785 26.9728 162.541 27.1632 162.341C27.3774 162.207 27.5812 162.054 27.7724 161.883C27.9204 161.631 28.0156 161.345 28.0512 161.047C28.2631 160.206 28.8928 159.585 29.3148 158.845C30.3806 156.979 30.0428 154.586 30.0034 152.381C29.965 150.237 30.2451 148.073 29.9262 145.957C29.6073 143.841 28.5079 141.679 26.6577 141.016C25.7412 140.687 24.7504 140.762 23.7914 140.866C18.7107 141.421 13.7738 142.438 9.00573 144.45Z" fill="#2F2E41"/>
<path opacity="0.1" d="M9.00573 144.45C8.41776 147.632 8.97527 150.941 10.5604 153.677C10.9926 154.416 11.499 155.109 11.8239 155.911C12.0369 156.483 12.2019 157.076 12.3171 157.681L13.7174 164.071C14.0954 165.797 14.4762 167.555 14.3627 169.325C14.2835 170.559 14.0015 171.946 14.6911 172.921C14.8574 173.107 14.9978 173.32 15.1077 173.551C15.1764 173.823 15.1788 174.109 15.1146 174.382C14.4061 179.021 13.8807 183.871 15.1604 188.36C16.3203 192.428 16.3865 196.935 17.3727 201.058C17.4948 201.569 17.6345 202.107 17.9853 202.467C18.2489 202.711 18.5653 202.877 18.9038 202.948C20.3571 203.329 21.8919 202.882 23.2473 202.19C24.1999 201.703 25.2253 200.85 25.1439 199.696C25.1052 199.147 24.8143 198.666 24.6169 198.16C24.2297 197.168 24.1986 196.06 24.0942 194.986C23.8318 192.29 23.0778 189.686 22.508 187.048C21.9381 184.41 21.551 181.654 22.033 178.995C23.0187 173.494 24.5964 168.143 26.7327 163.055C26.8256 162.785 26.9728 162.541 27.1632 162.341C27.3774 162.207 27.5812 162.054 27.7724 161.883C27.9204 161.631 28.0156 161.345 28.0512 161.047C28.2631 160.206 28.8928 159.585 29.3148 158.845C30.3806 156.979 30.0428 154.586 30.0034 152.381C29.965 150.237 30.2451 148.073 29.9262 145.957C29.6073 143.841 28.5079 141.679 26.6577 141.016C25.7412 140.687 24.7504 140.762 23.7914 140.866C18.7107 141.421 13.7738 142.438 9.00573 144.45Z" fill="black"/>
<path d="M29.6999 157.9C29.6849 158.734 29.5993 159.564 29.4443 160.379C28.5487 165.917 27.5944 171.442 26.5813 176.956C26.4921 177.435 26.4049 177.913 26.288 178.383C25.9106 179.917 25.2503 181.349 24.3483 182.59C20.1261 188.391 19.7615 196.816 17.4711 203.813C17.3166 204.287 17.1621 204.761 16.9976 205.228C16.5837 206.414 16.1121 207.574 15.5849 208.704C15.5233 208.868 15.4227 209.012 15.2937 209.119C15.1516 209.198 14.9925 209.232 14.834 209.217C12.7731 209.23 10.7371 208.72 8.88408 207.725C8.61953 207.618 8.39644 207.413 8.25205 207.146C8.18097 206.933 8.15785 206.705 8.18467 206.48C8.24808 205.093 8.32534 203.656 8.92568 202.437C9.32404 201.708 9.81812 201.047 10.3919 200.477C10.5702 196.124 10.9605 191.762 11.8283 187.511C12.2741 185.338 12.8249 183.14 13.9701 181.303C14.8142 179.947 16.0248 178.608 15.8762 176.972C15.8108 176.253 15.5374 175.357 16.0684 174.936C16.3002 174.75 16.6429 174.726 16.7994 174.462C16.8625 174.337 16.8978 174.198 16.9025 174.056C17.0116 172.933 16.948 171.798 16.7143 170.698C16.5212 169.98 16.3696 169.249 16.2605 168.51C16.1931 167.762 16.3081 166.954 16.7598 166.395C16.7875 164.901 16.7499 163.35 16.7777 161.858C16.831 161.008 16.7669 160.153 16.5874 159.324C16.4844 158.933 16.3279 158.56 16.2486 158.16C15.9653 156.725 16.6727 155.006 15.8306 153.868C15.4799 153.396 14.939 153.16 14.4793 152.819C13.562 152.144 12.9596 151.039 12.6248 149.879C12.3277 148.705 12.1515 147.497 12.0997 146.279C12.0724 146.021 12.0697 145.761 12.0918 145.502C12.1067 145.368 12.1387 145.237 12.1869 145.113C12.4485 144.464 13.1518 144.213 13.7779 144.047C17.757 142.995 21.8355 142.469 25.9274 142.481C27.4411 141.345 28.2931 141.751 28.935 142.955C29.2896 143.689 29.5763 144.461 29.791 145.259C30.0842 146.236 30.102 151.701 30.3874 152.682C30.7579 153.957 29.686 156.561 29.6999 157.9Z" fill="#2F2E41"/>
<path d="M2.33083 108.166C2.21835 109.026 2.59339 109.871 2.63486 110.739C2.67109 111.497 2.45222 112.237 2.327 112.984C1.83827 115.897 2.77724 118.848 3.73283 121.617C3.91456 122.066 4.02734 122.546 4.06657 123.037C4.09214 123.94 3.61998 124.768 3.49068 125.661C3.21897 127.537 4.4743 129.302 4.50032 131.202C4.5123 132.077 4.26245 132.967 4.46094 133.814C4.59341 134.379 4.91345 134.865 5.14054 135.393C5.54294 136.327 5.65093 137.387 6.03503 138.331C6.72917 140.037 8.22041 141.15 9.63961 142.174C10.447 141.877 11.3199 141.525 11.7632 140.724C11.9577 140.329 12.0835 139.898 12.1338 139.452C12.4407 137.509 12.4301 135.524 12.4185 133.552C12.4445 131.855 12.3626 130.158 12.1737 128.473C11.887 126.33 11.2564 124.264 10.8039 122.156C10.2333 119.498 9.94093 116.751 9.05221 114.201C8.27123 111.96 7.05476 109.948 5.77435 108.022C5.28579 107.287 4.90011 106.236 3.9519 106.405C3.55072 106.481 3.18016 106.69 2.89026 107.005C2.60037 107.32 2.4051 107.725 2.33083 108.166Z" fill="#3F3D56"/>
<path opacity="0.05" d="M2.33083 108.166C2.21835 109.026 2.59339 109.871 2.63486 110.739C2.67109 111.497 2.45222 112.237 2.327 112.984C1.83827 115.897 2.77724 118.848 3.73283 121.617C3.91456 122.066 4.02734 122.546 4.06657 123.037C4.09214 123.94 3.61998 124.768 3.49068 125.661C3.21897 127.537 4.4743 129.302 4.50032 131.202C4.5123 132.077 4.26245 132.967 4.46094 133.814C4.59341 134.379 4.91345 134.865 5.14054 135.393C5.54294 136.327 5.65093 137.387 6.03503 138.331C6.72917 140.037 8.22041 141.15 9.63961 142.174C10.447 141.877 11.3199 141.525 11.7632 140.724C11.9577 140.329 12.0835 139.898 12.1338 139.452C12.4407 137.509 12.4301 135.524 12.4185 133.552C12.4445 131.855 12.3626 130.158 12.1737 128.473C11.887 126.33 11.2564 124.264 10.8039 122.156C10.2333 119.498 9.94093 116.751 9.05221 114.201C8.27123 111.96 7.05476 109.948 5.77435 108.022C5.28579 107.287 4.90011 106.236 3.9519 106.405C3.55072 106.481 3.18016 106.69 2.89026 107.005C2.60037 107.32 2.4051 107.725 2.33083 108.166Z" fill="black"/>
<path d="M19.6396 92.9512C23.703 92.9512 26.9971 89.3196 26.9971 84.8398C26.9971 80.3601 23.703 76.7285 19.6396 76.7285C15.5763 76.7285 12.2822 80.3601 12.2822 84.8398C12.2822 89.3196 15.5763 92.9512 19.6396 92.9512Z" fill="#A0616A"/>
<path d="M23.9215 98.1183C23.6008 98.5274 23.1704 98.9784 22.6947 98.8464C22.5227 98.7817 22.3615 98.6865 22.2172 98.5647C21.3691 97.9621 20.3281 97.8206 19.3303 97.6549C17.3191 97.3208 15.3322 96.8284 13.3849 96.1813C12.8197 95.9545 12.227 95.8216 11.6263 95.7871C10.3793 95.7942 9.27418 96.7081 8.49272 97.7795C7.71126 98.8508 7.15761 100.104 6.39078 101.189C5.84443 101.961 5.1938 102.642 4.68357 103.444C3.39545 105.468 3.11859 108.109 3.45114 110.555C3.78369 113.001 4.66994 115.306 5.5482 117.582C6.01755 118.903 6.59046 120.177 7.26041 121.388C6.96413 123.246 7.12051 125.371 7.92194 127.038C8.18295 127.581 8.50281 128.11 8.58911 128.717C8.62867 129.128 8.6131 129.543 8.54288 129.949L8.16842 132.885C8.05439 133.78 7.94032 134.674 7.79265 135.562C7.52238 137.188 7.15572 138.952 7.83859 140.423C8.65636 142.185 7.79745 144.443 8.01232 146.408C10.3142 145.428 12.7259 144.796 15.1817 144.53C16.7628 144.359 18.3733 144.338 19.8987 143.849C20.8514 143.543 21.7548 143.059 22.722 142.816C23.5064 142.646 24.3033 142.556 25.1026 142.548C26.8656 142.469 28.6411 142.392 30.3863 142.678C30.5276 142.701 30.6998 142.714 30.7844 142.587C30.8221 142.518 30.8405 142.438 30.8374 142.357C30.8642 141.636 30.708 140.921 30.3862 140.292C30.1637 139.86 29.8546 139.436 29.8632 138.939C29.8793 138.707 29.931 138.479 30.016 138.266L30.7893 135.993C31.4421 134.074 31.1314 131.844 31.4705 129.829C31.7354 128.253 31.9052 126.66 31.9787 125.06C32.0414 123.692 32.0024 122.211 31.2539 121.119C31.035 120.855 30.8451 120.564 30.6883 120.251C30.5808 119.919 30.535 119.567 30.5536 119.214C30.5369 116.478 30.605 113.742 30.7579 111.008C30.1051 109.716 29.4245 108.394 28.7718 107.101C28.0121 105.597 27.2418 104.062 26.9351 102.374C26.7321 101.256 26.7391 100.106 26.5939 98.9775C26.5786 98.6909 26.4882 98.4154 26.3337 98.1844C26.0844 97.873 25.6629 97.8285 25.2864 97.8414C24.8214 97.8577 24.3613 97.951 23.9215 98.1183Z" fill="#3F3D56"/>
<path d="M26.378 110.788C26.8258 111.403 27.2925 112.036 27.9278 112.4C28.6587 112.818 29.5196 112.827 30.3429 112.808C33.733 112.728 37.1101 112.319 40.435 111.586C40.8138 111.514 41.1859 111.404 41.5465 111.257C41.9463 111.048 42.3231 110.788 42.6699 110.485C43.7645 109.617 44.8746 108.734 45.707 107.564C46.6972 106.152 47.3196 104.469 47.5073 102.697C48.299 101.892 48.7194 100.749 49.1158 99.6458C49.3115 99.1777 49.4354 98.677 49.4824 98.1642C49.5037 97.6395 49.1883 97.0895 49.2756 96.5732C49.4283 95.6829 49.8378 94.8708 50.443 94.2578C50.5714 94.157 50.6683 94.0149 50.7207 93.851C50.737 93.7145 50.7139 93.5758 50.6546 93.4545C50.3158 92.6226 49.5411 92.0861 48.7379 91.8681C47.9244 91.6952 47.0918 91.6587 46.2684 91.76C45.9939 91.8173 45.7236 91.8965 45.4595 91.9969L44.8841 93.6672C44.8068 93.9466 44.679 94.2058 44.5082 94.4291C44.3801 94.5574 44.2435 94.6751 44.0997 94.7812C43.8078 95.0545 43.5812 95.4028 43.44 95.7953C43.2988 96.1879 43.2474 96.6127 43.2901 97.0323C42.77 97.2549 42.3464 97.6876 42.1053 98.2423C41.8643 98.7971 41.824 99.4322 41.9927 100.019C41.56 100.121 41.1583 100.344 40.8261 100.666C40.494 100.989 40.2424 101.4 40.0955 101.86C40.0546 102.07 39.9697 102.266 39.8478 102.433C39.6579 102.592 39.4233 102.671 39.1853 102.657C38.5352 102.702 37.9667 103.266 37.3775 102.96C36.7082 102.614 35.9599 102.499 35.2302 102.629C35.0802 102.668 34.9259 102.683 34.772 102.674C34.6404 102.649 34.5134 102.6 34.3963 102.53C34.1309 102.359 33.8435 102.234 33.544 102.16C33.3934 102.125 33.237 102.139 33.0935 102.2C32.9501 102.261 32.8257 102.367 32.7354 102.504C32.5291 102.255 32.4061 101.935 32.2181 101.669C32.1348 101.527 32.0173 101.413 31.8789 101.34C31.7404 101.267 31.5863 101.238 31.4337 101.256C31.6296 101.064 31.4291 100.681 31.1745 100.611C30.9135 100.587 30.6508 100.598 30.392 100.642C29.7115 100.638 29.1894 99.9571 28.5284 99.7788C27.9209 99.6149 27.1111 99.8103 26.7997 99.2123C26.6893 99.0003 26.6677 98.7128 26.4797 98.583C26.3524 98.5141 26.2075 98.4955 26.0693 98.5305C25.6378 98.5939 25.2185 98.7341 24.8279 98.9459C24.1908 101.693 24.525 104.546 25.0105 107.331C25.1878 108.594 25.659 109.785 26.378 110.788Z" fill="#3F3D56"/>
<path d="M22.6793 96.0828C21.89 95.5411 20.9608 95.3114 20.0462 95.1272C19.4971 94.9895 18.9321 94.9447 18.3708 94.9944C17.8528 95.0657 17.3557 95.2861 16.8346 95.3181C16.1031 95.3631 15.4018 95.036 14.6952 94.8228C13.9886 94.6096 13.1724 94.5281 12.5775 94.9995C12.4509 95.1369 12.2907 95.2307 12.1165 95.2694C11.9359 95.2452 11.768 95.1544 11.64 95.0117C11.1395 94.6168 10.532 94.4211 9.9173 94.4568C9.30259 94.4925 8.71714 94.7575 8.25701 95.2083C6.90804 96.6028 7.06071 99.3275 5.4798 100.385C5.04404 100.677 4.48695 100.831 4.23254 101.318C4.17094 101.473 4.09905 101.623 4.01746 101.766C3.91156 101.895 3.78196 101.996 3.63738 102.065C3.17867 102.291 2.74205 102.567 2.33429 102.891C2.13089 103.054 1.95957 103.261 1.83067 103.499C1.70178 103.737 1.61796 104.002 1.58429 104.277C1.57844 104.68 1.65727 105.079 1.8146 105.442C2.58819 107.534 3.93033 109.311 5.65663 110.528C7.38293 111.745 9.40868 112.343 11.4556 112.239C11.819 112.26 12.1772 112.136 12.4655 111.892C12.6176 111.703 12.7375 111.485 12.8195 111.249C13.5627 109.531 14.9586 108.263 15.845 106.629C16.3732 105.656 16.7123 104.567 17.2622 103.608C18.0959 102.155 19.3636 101.081 20.6045 100.039C21.3043 99.4513 22.0833 98.8347 22.9625 98.8758C23.7459 98.9126 24.3158 98.959 24.0286 97.8996C23.7892 97.1363 23.3108 96.4921 22.6793 96.0828Z" fill="#3F3D56"/>
<path opacity="0.05" d="M22.6793 96.0828C21.89 95.5411 20.9608 95.3114 20.0462 95.1272C19.4971 94.9895 18.9321 94.9447 18.3708 94.9944C17.8528 95.0657 17.3557 95.2861 16.8346 95.3181C16.1031 95.3631 15.4018 95.036 14.6952 94.8228C13.9886 94.6096 13.1724 94.5281 12.5775 94.9995C12.4509 95.1369 12.2907 95.2307 12.1165 95.2694C11.9359 95.2452 11.768 95.1544 11.64 95.0117C11.1395 94.6168 10.532 94.4211 9.9173 94.4568C9.30259 94.4925 8.71714 94.7575 8.25701 95.2083C6.90804 96.6028 7.06071 99.3275 5.4798 100.385C5.04404 100.677 4.48695 100.831 4.23254 101.318C4.17094 101.473 4.09905 101.623 4.01746 101.766C3.91156 101.895 3.78196 101.996 3.63738 102.065C3.17867 102.291 2.74205 102.567 2.33429 102.891C2.13089 103.054 1.95957 103.261 1.83067 103.499C1.70178 103.737 1.61796 104.002 1.58429 104.277C1.57844 104.68 1.65727 105.079 1.8146 105.442C2.58819 107.534 3.93033 109.311 5.65663 110.528C7.38293 111.745 9.40868 112.343 11.4556 112.239C11.819 112.26 12.1772 112.136 12.4655 111.892C12.6176 111.703 12.7375 111.485 12.8195 111.249C13.5627 109.531 14.9586 108.263 15.845 106.629C16.3732 105.656 16.7123 104.567 17.2622 103.608C18.0959 102.155 19.3636 101.081 20.6045 100.039C21.3043 99.4513 22.0833 98.8347 22.9625 98.8758C23.7459 98.9126 24.3158 98.959 24.0286 97.8996C23.7892 97.1363 23.3108 96.4921 22.6793 96.0828Z" fill="black"/>
<path d="M26.5079 213.645C25.975 214.193 25.2419 214.433 24.5306 214.604C22.9062 214.953 21.2616 215.177 19.609 215.274C19.074 215.318 18.5371 215.364 18.0021 215.41C16.4329 215.541 14.8617 215.674 13.2866 215.68C11.3424 215.688 9.40148 215.503 7.48723 215.128C7.41063 215.136 7.33337 215.124 7.26167 215.093C7.18996 215.062 7.12581 215.014 7.07436 214.95C7.02291 214.887 6.98561 214.812 6.96544 214.73C6.94527 214.648 6.9428 214.562 6.95824 214.479C6.99226 212.318 7.23131 210.167 7.67148 208.061C7.8538 207.196 9.26051 209.136 9.32393 209.217C9.71424 209.706 10.0095 209.931 10.6019 209.966C12.2206 210.064 14.0335 208.979 15.3194 208.013C15.5948 207.788 15.8871 207.588 16.1932 207.417C16.418 207.306 16.6563 207.231 16.9005 207.194C17.7334 207.11 18.5704 207.296 19.3078 207.732C20.2747 208.26 21.1227 209.02 22.0797 209.564C22.8578 210.005 23.6978 210.298 24.5643 210.431C25.44 210.565 26.4862 210.628 26.9359 211.465C26.9367 211.465 26.9372 211.466 26.9376 211.468C26.9379 211.469 26.938 211.47 26.9379 211.471C27.3064 212.164 27.0389 213.099 26.5079 213.645Z" fill="#2F2E41"/>
<path d="M26.5091 213.964C25.9761 214.513 25.2431 214.753 24.5318 214.923C22.9073 215.273 21.2628 215.497 19.6101 215.594C19.0752 215.638 18.5383 215.684 18.0033 215.729C16.4341 215.86 14.8629 215.994 13.2877 216C11.3435 216.008 9.40265 215.823 7.48841 215.448C7.40066 215.444 7.31457 215.42 7.23548 215.378C7.1564 215.336 7.08602 215.276 7.02873 215.203C6.87758 214.982 6.75653 214.738 6.66943 214.479C6.70311 212.321 7.23281 210.165 7.67266 208.062C7.85498 207.197 9.26169 209.136 9.3251 209.217C9.71542 209.706 10.0106 209.931 10.603 209.966C12.2218 210.065 14.0347 208.979 15.3206 208.013C15.5959 207.788 15.8882 207.588 16.1943 207.417C16.4192 207.306 16.6574 207.231 16.9017 207.194C16.6936 208.479 15.0234 210.03 14.1615 210.501C12.4179 211.456 10.3455 210.98 8.39984 211.091C8.2574 211.087 8.11654 211.125 7.99167 211.2C7.75789 211.371 7.74401 211.736 7.75194 212.044C7.76778 212.555 7.82721 213.155 8.22942 213.415C8.43063 213.522 8.65229 213.573 8.87534 213.564C13.67 213.795 18.4737 213.61 23.2419 213.009C24.0439 212.95 24.8329 212.756 25.5819 212.435C26.0712 212.182 26.5277 211.858 26.9391 211.471C27.5515 212.002 27.0401 213.418 26.5091 213.964Z" fill="#E8EAF2"/>
<path d="M22.5026 84.7524C22.4749 85.5912 22.994 87.2186 21.5714 86.7642C20.7234 86.4934 20.4837 85.3859 19.4078 85.6327C18.322 85.8839 18.0842 87.3409 17.7197 88.2976C17.4227 89.058 16.9623 89.7271 16.3782 90.2474C15.7941 90.7676 15.1039 91.1233 14.3673 91.2836C14.0635 91.3616 13.7475 91.3608 13.444 91.2815C12.7505 91.063 12.3543 90.2745 12.071 89.5427C11.8256 88.9238 11.6223 88.2857 11.4627 87.6336C11.3521 87.1749 11.2785 86.7064 11.2427 86.2334V86.2312C11.2187 85.9093 11.2173 85.5858 11.2388 85.2636C11.3676 83.3566 12.3523 81.6179 13.6124 80.3029C14.8725 78.988 16.4041 78.0378 17.9159 77.1007C18.4096 76.761 18.9437 76.4985 19.5029 76.3209C20.0545 76.1982 20.6202 76.1724 21.1791 76.2444C21.915 76.279 22.6383 76.4665 23.311 76.7971C23.5868 76.9472 23.8401 77.1431 24.0619 77.3781C24.3776 77.7006 24.6031 78.116 24.7118 78.5751C24.9852 79.8071 24.2719 80.9167 23.6934 81.8909C23.1782 82.7559 22.5402 83.6734 22.5026 84.7524Z" fill="#2F2E41"/>
<path d="M24.0391 80.006C23.906 80.2438 23.7605 80.4728 23.6032 80.6919C23.3028 81.1104 22.9656 81.4953 22.5967 81.8409C22.3794 82.0495 22.1526 82.2456 21.9171 82.4284C21.4805 82.7672 21.0215 83.0695 20.544 83.3328C19.1531 84.106 17.6473 84.591 16.1494 85.0693C15.1707 85.3839 14.1912 85.6977 13.2111 86.0108C12.1868 86.8649 8.75513 89.6674 8.17856 89.3179C7.49898 88.905 11.223 85.9985 11.223 85.9985L11.3942 86.1418C10.8494 85.7639 10.5641 84.888 10.4412 84.13C10.2233 82.7736 10.1203 81.3647 10.4115 80.0235C10.7028 78.6845 11.4339 77.4088 12.5474 76.7819C13.0407 76.5023 13.6391 76.3123 13.9958 75.882C14.0498 75.8183 14.097 75.7479 14.1364 75.6723C14.158 75.6371 14.1766 75.5998 14.1919 75.5609C14.2313 75.4427 14.2838 75.3304 14.3484 75.2267C14.5525 74.9667 14.923 75.0454 15.2321 75.0869C15.2658 75.0912 15.2975 75.0956 15.3312 75.0978C15.3864 75.104 15.442 75.1069 15.4976 75.1065C16.6012 75.1327 17.6711 74.4556 18.7886 74.4556C20.013 74.4534 21.0552 75.2354 22.133 75.7684C22.351 75.8776 22.557 75.9759 22.7512 76.0764C23.5299 76.4761 24.1163 76.902 24.4373 78.0379C24.6235 78.702 24.3679 79.4162 24.0391 80.006Z" fill="#3F3D56"/>
<path opacity="0.1" d="M11.2959 85.9661C11.4509 86.0725 11.6238 86.1435 11.8042 86.1747C12.0315 86.2475 12.2704 86.2652 12.5044 86.2265C12.7385 86.1879 12.9622 86.0938 13.1601 85.9507L11.2959 85.9661Z" fill="black"/>
</g>
<defs>
<linearGradient id="paint0_linear" x1="16.6199" y1="207.405" x2="16.6199" y2="204.906" gradientUnits="userSpaceOnUse">
<stop stop-color="#808080" stop-opacity="0.25"/>
<stop offset="0.53514" stop-color="#808080" stop-opacity="0.12"/>
<stop offset="1" stop-color="#808080" stop-opacity="0.1"/>
</linearGradient>
<clipPath id="clip0">
<rect width="200" height="216" fill="white"/>
</clipPath>
</defs>
</svg>
