<svg width="200" height="140" viewBox="0 0 200 140" fill="none" xmlns="http://www.w3.org/2000/svg">
<g clip-path="url(#clip0)">
<path d="M190.691 27.0804H9.30889C6.84087 27.0776 4.47474 26.096 2.72959 24.3508C0.984441 22.6057 0.00278753 20.2395 0 17.7715V9.30889C0.00278753 6.84087 0.984441 4.47474 2.72959 2.72959C4.47474 0.98444 6.84087 0.00278836 9.30889 0H190.691C193.159 0.00278753 195.525 0.984435 197.27 2.72959C199.016 4.47474 199.997 6.84087 200 9.30889V17.7715C199.997 20.2395 199.016 22.6057 197.27 24.3508C195.525 26.096 193.159 27.0776 190.691 27.0804ZM9.30889 0.564172C6.99045 0.5668 4.76772 1.48896 3.12834 3.12835C1.48896 4.76773 0.5668 6.99045 0.564172 9.30889V17.7715C0.5668 20.0899 1.48896 22.3127 3.12834 23.952C4.76772 25.5914 6.99045 26.5136 9.30889 26.5162H190.691C193.01 26.5136 195.232 25.5914 196.872 23.952C198.511 22.3127 199.433 20.0899 199.436 17.7715V9.30889C199.433 6.99045 198.511 4.76773 196.872 3.12835C195.232 1.48896 193.01 0.5668 190.691 0.564172H9.30889Z" fill="#3F3D56"/>
<path d="M143.582 8.18066H23.1311C20.1711 8.18066 17.7715 10.5803 17.7715 13.5403V13.5403C17.7715 16.5004 20.1711 18.9 23.1311 18.9H143.582C146.543 18.9 148.942 16.5004 148.942 13.5403C148.942 10.5803 146.543 8.18066 143.582 8.18066Z" fill="#E6E6E6"/>
<path d="M159.379 55.1885H38.928C35.968 55.1885 33.5684 57.5881 33.5684 60.5481V60.5481C33.5684 63.5082 35.968 65.9078 38.928 65.9078H159.379C162.339 65.9078 164.739 63.5082 164.739 60.5481C164.739 57.5881 162.339 55.1885 159.379 55.1885Z" fill="#1A2854"/>
<path d="M159.379 89.2705H38.928C35.968 89.2705 33.5684 91.6701 33.5684 94.6302V94.6302C33.5684 97.5902 35.968 99.9898 38.928 99.9898H159.379C162.339 99.9898 164.739 97.5902 164.739 94.6302C164.739 91.6701 162.339 89.2705 159.379 89.2705Z" fill="#E6E6E6"/>
<path d="M159.379 123.353H38.928C35.968 123.353 33.5684 125.752 33.5684 128.712V128.712C33.5684 131.672 35.968 134.072 38.928 134.072H159.379C162.339 134.072 164.739 131.672 164.739 128.712C164.739 125.752 162.339 123.353 159.379 123.353Z" fill="#E6E6E6"/>
<path d="M182.368 19.3303C182.239 19.5137 182.043 19.6386 181.823 19.6775C181.602 19.7164 181.375 19.6661 181.192 19.5376L176.587 16.3331C176.403 16.2046 176.278 16.0086 176.239 15.7881C176.201 15.5677 176.251 15.3408 176.379 15.1574C176.508 14.974 176.704 14.8491 176.924 14.8102C177.145 14.7713 177.372 14.8216 177.555 14.95L182.16 18.1546C182.344 18.283 182.469 18.479 182.508 18.6995C182.546 18.92 182.496 19.1469 182.368 19.3303Z" fill="#1A2854"/>
<path d="M177.139 15.6898C176.459 16.6607 175.507 17.4082 174.402 17.8378C173.297 18.2674 172.09 18.3598 170.933 18.1032C169.776 17.8467 168.721 17.2528 167.901 16.3966C167.082 15.5405 166.534 14.4605 166.328 13.2932C166.123 12.126 166.267 10.9239 166.745 9.83902C167.222 8.75414 168.01 7.83517 169.01 7.19832C170.01 6.56147 171.176 6.23535 172.361 6.26119C173.546 6.28703 174.696 6.66368 175.667 7.34351C176.968 8.25628 177.853 9.64763 178.129 11.2123C178.405 12.777 178.049 14.3872 177.139 15.6898ZM168.548 9.67459C168.038 10.4028 167.756 11.2658 167.737 12.1545C167.717 13.0432 167.962 13.9178 168.439 14.6675C168.917 15.4172 169.606 16.0084 170.42 16.3664C171.234 16.7245 172.135 16.8331 173.011 16.6788C173.886 16.5244 174.696 16.1139 175.338 15.4992C175.98 14.8845 176.426 14.0931 176.618 13.2253C176.81 12.3574 176.741 11.452 176.419 10.6235C176.097 9.79498 175.536 9.08063 174.808 8.57076C173.831 7.88839 172.623 7.62138 171.45 7.82831C170.276 8.03525 169.233 8.69923 168.548 9.67459Z" fill="#1A2854"/>
<path d="M185.473 71.0207H14.5277C14.4529 71.0207 14.3811 70.991 14.3282 70.9381C14.2753 70.8852 14.2456 70.8135 14.2456 70.7386C14.2456 70.6638 14.2753 70.5921 14.3282 70.5392C14.3811 70.4863 14.4529 70.4565 14.5277 70.4565H185.473C185.548 70.4565 185.619 70.4863 185.672 70.5392C185.725 70.5921 185.755 70.6638 185.755 70.7386C185.755 70.8135 185.725 70.8852 185.672 70.9381C185.619 70.991 185.548 71.0207 185.473 71.0207Z" fill="#3F3D56"/>
<path d="M185.473 105.117H14.5277C14.4529 105.117 14.3811 105.087 14.3282 105.034C14.2753 104.981 14.2456 104.91 14.2456 104.835C14.2456 104.76 14.2753 104.688 14.3282 104.635C14.3811 104.582 14.4529 104.553 14.5277 104.553H185.473C185.548 104.553 185.619 104.582 185.672 104.635C185.725 104.688 185.755 104.76 185.755 104.835C185.755 104.91 185.725 104.981 185.672 105.034C185.619 105.087 185.548 105.117 185.473 105.117Z" fill="#3F3D56"/>
<path d="M185.473 139.213H14.5277C14.4529 139.213 14.3811 139.183 14.3282 139.13C14.2753 139.078 14.2456 139.006 14.2456 138.931C14.2456 138.856 14.2753 138.784 14.3282 138.732C14.3811 138.679 14.4529 138.649 14.5277 138.649H185.473C185.548 138.649 185.619 138.679 185.672 138.732C185.725 138.784 185.755 138.856 185.755 138.931C185.755 139.006 185.725 139.078 185.672 139.13C185.619 139.183 185.548 139.213 185.473 139.213Z" fill="#3F3D56"/>
</g>
<defs>
<clipPath id="clip0">
<rect width="200" height="139.213" fill="white"/>
</clipPath>
</defs>
</svg>
