<svg width="250" height="151" viewBox="0 0 250 151" fill="none" xmlns="http://www.w3.org/2000/svg">
<g clip-path="url(#clip0)">
<path d="M16.3934 110.266L14.8921 104.345C12.2301 103.217 9.50667 102.239 6.73465 101.418L6.54509 104.17L5.77646 101.138C2.3387 100.157 0 99.7241 0 99.7241C0 99.7241 3.15905 111.737 9.78493 120.921L17.5055 122.277L11.5076 123.142C12.3414 124.145 13.2375 125.095 14.1906 125.985C23.8293 134.932 34.5651 139.037 38.1696 135.154C41.7741 131.27 36.8823 120.87 27.2436 111.923C24.2554 109.149 20.5017 106.923 16.7443 105.172L16.3934 110.266Z" fill="#E6E6E6"/>
<path d="M30.6712 103.836L32.4468 97.9911C30.7512 95.6494 28.9248 93.4051 26.9764 91.2691L25.3917 93.5269L26.3008 90.5343C23.8654 87.9169 22.0868 86.3379 22.0868 86.3379C22.0868 86.3379 18.5816 98.2544 19.5065 109.541L25.4146 114.693L19.8331 112.333C20.0285 113.623 20.3047 114.899 20.6602 116.154C24.2868 128.795 31.3553 137.858 36.4482 136.397C41.541 134.936 42.7297 123.504 39.1031 110.863C37.9788 106.944 35.916 103.098 33.6049 99.6563L30.6712 103.836Z" fill="#E6E6E6"/>
<path d="M250 137.276H0.0224609V137.907H250V137.276Z" fill="#3F3D56"/>
<path d="M39.5172 71.9567C39.5172 71.9567 37.5705 95.3635 37.1526 100.379C36.866 103.523 36.1632 106.615 35.0627 109.575C35.0627 109.575 34.2268 111.246 34.2268 112.918V134.235C34.2268 134.235 32.5549 134.235 32.9728 135.907C33.3908 137.579 33.8088 140.504 33.8088 140.504H40.0784C40.0784 140.504 39.6604 139.251 40.9143 138.833C42.1682 138.415 40.9143 135.071 40.9143 135.071L47.6018 109.993L57.6332 89.0939C57.6332 89.0939 63.4848 107.903 64.7387 109.993C64.7387 109.993 69.3364 133.399 70.1723 135.489C71.0083 137.579 71.4262 137.579 71.0083 138.415C70.5903 139.251 70.5903 140.086 71.0083 140.504C71.4262 140.922 79.3677 140.504 79.3677 140.504L77.2778 110.828L73.5161 75.3008L54.2894 69.4492L39.5172 71.9567Z" fill="#2F2E41"/>
<path d="M38.4066 137.161C38.4066 137.161 36.3168 129.637 32.973 135.489C29.6292 141.341 29.6292 143.431 29.6292 143.431C29.6292 143.431 24.1956 151.372 31.7191 150.536C39.2426 149.7 37.5707 145.938 37.5707 145.938C37.5707 145.938 40.4965 144.266 40.4965 143.013C40.4965 141.759 38.4066 137.161 38.4066 137.161Z" fill="#2F2E41"/>
<path d="M72.2622 136.324C72.2622 136.324 74.3521 128.801 77.6959 134.653C81.0396 140.504 81.0396 142.594 81.0396 142.594C81.0396 142.594 86.4733 150.536 78.9498 149.7C71.4263 148.864 73.0982 145.102 73.0982 145.102C73.0982 145.102 70.1724 143.43 70.1724 142.176C70.1724 140.922 72.2622 136.324 72.2622 136.324Z" fill="#2F2E41"/>
<path d="M52.6178 15.5308C52.6178 15.5308 53.4537 20.9644 50.9459 22.2183C48.4381 23.4722 56.3795 28.0699 58.4694 28.0699C60.5593 28.0699 64.321 23.8902 64.321 23.8902C64.321 23.8902 62.2312 17.6206 62.6491 16.3667L52.6178 15.5308Z" fill="#A0616A"/>
<path d="M57.2154 19.7106C62.063 19.7106 65.9928 15.7808 65.9928 10.9332C65.9928 6.08554 62.063 2.15576 57.2154 2.15576C52.3678 2.15576 48.438 6.08554 48.438 10.9332C48.438 15.7808 52.3678 19.7106 57.2154 19.7106Z" fill="#A0616A"/>
<path d="M74.3519 28.9063L63.9029 22.5756C63.9029 22.5756 57.9577 29.3243 51.5258 21.8008L40.4961 24.7266L42.168 53.1487C42.168 53.1487 39.6602 64.4339 40.4961 66.5238C41.3321 68.6136 38.4063 69.4496 39.2422 69.8675C40.0782 70.2855 39.2422 73.2113 39.2422 73.2113C39.2422 73.2113 55.5431 81.5707 73.5159 75.3012L71.844 69.8675C72.0716 69.1572 72.1142 68.4007 71.9679 67.6693C71.8217 66.9379 71.4913 66.2559 71.0081 65.6878C71.0081 65.6878 72.68 63.18 70.5901 61.0901C70.5901 61.0901 71.426 57.3284 69.3362 55.6565L68.9182 49.8049L70.1721 46.8791L74.3519 28.9063Z" fill="#CFCCE0"/>
<path d="M52.7232 6.85757C52.7232 6.85757 51.6768 9.12219 55.8626 8.21634C55.8626 8.21634 57.4323 9.1222 57.4323 7.76342C57.4323 7.76342 59.5252 10.028 60.0484 8.66927C60.5716 7.31049 61.6181 9.12219 61.6181 9.12219L62.6645 6.85757L63.7109 8.21634H67.3735C67.3735 8.21634 68.4199 -0.842176 55.8626 0.0636769C43.3052 0.96953 49.4828 15.3219 49.4828 15.3219C49.4828 15.3219 49.5839 12.7456 50.6304 14.1044C51.6768 15.4632 52.7232 6.85757 52.7232 6.85757Z" fill="#2F2E41"/>
<path d="M78.1135 45.625L78.5315 54.4024C78.5315 54.4024 80.2034 70.7033 76.8596 77.8088V81.5706C76.8596 81.5706 76.0237 91.1839 71.844 90.766C67.6642 90.348 73.0979 76.9729 73.0979 76.9729L72.2619 58.5821L71.426 48.1328L78.1135 45.625Z" fill="#A0616A"/>
<path d="M69.7544 29.3239L73.9239 28.6465C76.9274 31.5323 78.9734 35.27 79.7857 39.3552C81.0397 46.0428 81.4576 47.2967 81.4576 47.2967L71.4263 49.8045L65.9927 39.3552L69.7544 29.3239Z" fill="#CFCCE0"/>
<path d="M117.762 24.5537H51.8018V57.3195H117.762V24.5537Z" fill="white"/>
<path d="M59.0044 26.5245C57.3098 25.5054 55.2665 25.5833 54.4897 25.6611C54.7856 26.3833 55.6731 28.2254 57.3677 29.245C59.0664 30.2666 61.107 30.1864 61.8826 30.1091C61.5869 29.3872 60.6992 27.5443 59.0044 26.5245Z" fill="#1A2854"/>
<path d="M66.9671 46.7456H56.3759C56.0627 46.7453 55.7525 46.8066 55.4631 46.9263C55.1737 47.0459 54.9107 47.2213 54.6891 47.4427C54.4676 47.664 54.2918 47.9268 54.1719 48.2161C54.052 48.5054 53.9902 48.8155 53.9902 49.1286C53.9902 49.4418 54.052 49.7519 54.1719 50.0412C54.2918 50.3305 54.4676 50.5933 54.6891 50.8146C54.9107 51.0359 55.1737 51.2114 55.4631 51.331C55.7525 51.4506 56.0627 51.512 56.3759 51.5117H66.9671C67.2803 51.512 67.5904 51.4506 67.8799 51.331C68.1693 51.2114 68.4323 51.0359 68.6539 50.8146C68.8754 50.5933 69.0512 50.3305 69.1711 50.0412C69.291 49.7519 69.3528 49.4418 69.3528 49.1286C69.3528 48.8155 69.291 48.5054 69.1711 48.2161C69.0512 47.9268 68.8754 47.664 68.6539 47.4427C68.4323 47.2213 68.1693 47.0459 67.8799 46.9263C67.5904 46.8066 67.2803 46.7453 66.9671 46.7456Z" fill="#1A2854"/>
<path d="M114.928 21.5913H55.5463C54.8555 21.5913 54.1715 21.7274 53.5333 21.9917C52.8951 22.2561 52.3153 22.6435 51.8268 23.132C51.3383 23.6204 50.9509 24.2003 50.6865 24.8385C50.4222 25.4767 50.2861 26.1607 50.2861 26.8515V55.7836C50.2861 57.1787 50.8403 58.5166 51.8268 59.5031C52.8133 60.4896 54.1512 61.0438 55.5463 61.0438H114.928C116.323 61.0438 117.661 60.4896 118.648 59.5031C119.634 58.5166 120.188 57.1787 120.188 55.7836V26.8515C120.188 26.1607 120.052 25.4767 119.788 24.8385C119.524 24.2003 119.136 23.6204 118.648 23.132C118.159 22.6435 117.579 22.2561 116.941 21.9917C116.303 21.7274 115.619 21.5913 114.928 21.5913ZM54.0771 25.1796C54.1944 25.1584 56.975 24.6852 59.2775 26.0706C61.5798 27.4558 62.4644 30.1344 62.5009 30.2476L62.5939 30.5365L62.2952 30.5895C61.8689 30.656 61.4379 30.6877 61.0065 30.6841C59.638 30.7103 58.2874 30.3699 57.0947 29.6982C54.7923 28.3132 53.9079 25.6346 53.8714 25.5214L53.7783 25.2326L54.0771 25.1796ZM66.9674 52.0412H56.3761C55.6036 52.0412 54.8628 51.7343 54.3166 51.1881C53.7704 50.6419 53.4635 49.901 53.4635 49.1286C53.4635 48.3561 53.7704 47.6153 54.3166 47.0691C54.8628 46.5228 55.6036 46.216 56.3761 46.216H66.9674C67.7398 46.216 68.4807 46.5228 69.0269 47.0691C69.5731 47.6153 69.88 48.3561 69.88 49.1286C69.88 49.901 69.5731 50.6419 69.0269 51.1881C68.4807 51.7343 67.7398 52.0412 66.9674 52.0412ZM115.158 51.5116C115.155 52.3535 114.82 53.1603 114.224 53.7556C113.629 54.351 112.822 54.6865 111.98 54.689H104.037C103.195 54.6865 102.388 54.351 101.793 53.7556C101.197 53.1603 100.862 52.3535 100.859 51.5116V46.7456C100.862 45.9036 101.197 45.0969 101.793 44.5015C102.388 43.9062 103.195 43.5706 104.037 43.5682H111.98C112.822 43.5706 113.629 43.9062 114.224 44.5015C114.82 45.0969 115.155 45.9036 115.158 46.7456V51.5116Z" fill="#1A2854"/>
<path d="M106.552 50.585H103.11C102.864 50.585 102.628 50.6826 102.455 50.8564C102.281 51.0302 102.183 51.2659 102.183 51.5117C102.183 51.7575 102.281 51.9932 102.455 52.167C102.628 52.3408 102.864 52.4384 103.11 52.4384H106.552C106.798 52.4384 107.033 52.3408 107.207 52.167C107.381 51.9932 107.479 51.7575 107.479 51.5117C107.479 51.2659 107.381 51.0302 107.207 50.8564C107.033 50.6826 106.798 50.585 106.552 50.585ZM106.552 51.9089H103.11C103.058 51.909 103.006 51.8988 102.958 51.8789C102.909 51.859 102.865 51.8298 102.828 51.7929C102.791 51.756 102.762 51.7122 102.742 51.6639C102.722 51.6157 102.712 51.5639 102.712 51.5117C102.712 51.4594 102.722 51.4077 102.742 51.3595C102.762 51.3112 102.791 51.2674 102.828 51.2305C102.865 51.1936 102.909 51.1643 102.958 51.1445C103.006 51.1246 103.058 51.1144 103.11 51.1145H106.552C106.657 51.1148 106.758 51.1568 106.832 51.2312C106.906 51.3057 106.948 51.4065 106.948 51.5117C106.948 51.6168 106.906 51.7177 106.832 51.7922C106.758 51.8666 106.657 51.9086 106.552 51.9089Z" fill="#1A2854"/>
<path d="M112.907 50.585H109.464C109.219 50.585 108.983 50.6826 108.809 50.8564C108.635 51.0302 108.538 51.2659 108.538 51.5117C108.538 51.7575 108.635 51.9932 108.809 52.167C108.983 52.3408 109.219 52.4384 109.464 52.4384H112.907C113.152 52.4384 113.388 52.3408 113.562 52.167C113.736 51.9932 113.833 51.7575 113.833 51.5117C113.833 51.2659 113.736 51.0302 113.562 50.8564C113.388 50.6826 113.152 50.585 112.907 50.585ZM112.907 51.9089H109.464C109.412 51.909 109.36 51.8988 109.312 51.8789C109.264 51.859 109.22 51.8298 109.183 51.7929C109.146 51.756 109.116 51.7122 109.096 51.6639C109.076 51.6157 109.066 51.5639 109.066 51.5117C109.066 51.4594 109.076 51.4077 109.096 51.3595C109.116 51.3112 109.146 51.2674 109.183 51.2305C109.22 51.1936 109.264 51.1643 109.312 51.1445C109.36 51.1246 109.412 51.1144 109.464 51.1145H112.907C113.012 51.1148 113.112 51.1568 113.187 51.2312C113.261 51.3057 113.303 51.4065 113.303 51.5117C113.303 51.6168 113.261 51.7177 113.187 51.7922C113.112 51.8666 113.012 51.9086 112.907 51.9089Z" fill="#1A2854"/>
<path d="M106.552 48.2017H103.11C102.864 48.2017 102.628 48.2993 102.455 48.4731C102.281 48.6469 102.183 48.8826 102.183 49.1284C102.183 49.3742 102.281 49.6099 102.455 49.7837C102.628 49.9575 102.864 50.0551 103.11 50.0551H106.552C106.798 50.0551 107.033 49.9575 107.207 49.7837C107.381 49.6099 107.479 49.3742 107.479 49.1284C107.479 48.8826 107.381 48.6469 107.207 48.4731C107.033 48.2993 106.798 48.2017 106.552 48.2017ZM106.552 49.5256H103.11C103.058 49.5256 103.006 49.5153 102.958 49.4953C102.91 49.4754 102.866 49.4461 102.829 49.4092C102.792 49.3724 102.763 49.3286 102.743 49.2804C102.723 49.2322 102.713 49.1806 102.713 49.1284C102.713 49.0762 102.723 49.0246 102.743 48.9764C102.763 48.9282 102.792 48.8844 102.829 48.8476C102.866 48.8107 102.91 48.7814 102.958 48.7615C103.006 48.7415 103.058 48.7312 103.11 48.7312H106.552C106.604 48.7312 106.656 48.7415 106.704 48.7615C106.752 48.7814 106.796 48.8107 106.833 48.8476C106.87 48.8844 106.899 48.9282 106.919 48.9764C106.939 49.0246 106.949 49.0762 106.949 49.1284C106.949 49.1806 106.939 49.2322 106.919 49.2804C106.899 49.3286 106.87 49.3724 106.833 49.4092C106.796 49.4461 106.752 49.4754 106.704 49.4953C106.656 49.5153 106.604 49.5256 106.552 49.5256Z" fill="#1A2854"/>
<path d="M112.907 48.2017H109.464C109.219 48.2017 108.983 48.2993 108.809 48.4731C108.635 48.6469 108.538 48.8826 108.538 49.1284C108.538 49.3742 108.635 49.6099 108.809 49.7837C108.983 49.9575 109.219 50.0551 109.464 50.0551H112.907C113.152 50.0551 113.388 49.9575 113.562 49.7837C113.736 49.6099 113.833 49.3742 113.833 49.1284C113.833 48.8826 113.736 48.6469 113.562 48.4731C113.388 48.2993 113.152 48.2017 112.907 48.2017ZM112.907 49.5256H109.464C109.412 49.5256 109.361 49.5153 109.312 49.4953C109.264 49.4754 109.22 49.4461 109.183 49.4092C109.147 49.3724 109.117 49.3286 109.097 49.2804C109.077 49.2322 109.067 49.1806 109.067 49.1284C109.067 49.0762 109.077 49.0246 109.097 48.9764C109.117 48.9282 109.147 48.8844 109.183 48.8476C109.22 48.8107 109.264 48.7814 109.312 48.7615C109.361 48.7415 109.412 48.7312 109.464 48.7312H112.907C112.959 48.7312 113.01 48.7415 113.058 48.7615C113.107 48.7814 113.15 48.8107 113.187 48.8476C113.224 48.8844 113.253 48.9282 113.273 48.9764C113.293 49.0246 113.304 49.0762 113.304 49.1284C113.304 49.1806 113.293 49.2322 113.273 49.2804C113.253 49.3286 113.224 49.3724 113.187 49.4092C113.15 49.4461 113.107 49.4754 113.058 49.4953C113.01 49.5153 112.959 49.5256 112.907 49.5256Z" fill="#1A2854"/>
<path d="M106.552 45.8188H103.11C102.864 45.8188 102.628 45.9165 102.455 46.0903C102.281 46.2641 102.183 46.4998 102.183 46.7456C102.183 46.9914 102.281 47.2271 102.455 47.4009C102.628 47.5747 102.864 47.6723 103.11 47.6723H106.552C106.798 47.6723 107.033 47.5747 107.207 47.4009C107.381 47.2271 107.479 46.9914 107.479 46.7456C107.479 46.4998 107.381 46.2641 107.207 46.0903C107.033 45.9165 106.798 45.8188 106.552 45.8188ZM106.552 47.1427H103.11C103.058 47.1429 103.006 47.1327 102.958 47.1128C102.909 47.0929 102.865 47.0637 102.828 47.0268C102.791 46.9899 102.762 46.9461 102.742 46.8978C102.722 46.8496 102.712 46.7978 102.712 46.7456C102.712 46.6933 102.722 46.6416 102.742 46.5933C102.762 46.5451 102.791 46.5013 102.828 46.4644C102.865 46.4275 102.909 46.3982 102.958 46.3783C103.006 46.3584 103.058 46.3483 103.11 46.3484H106.552C106.657 46.3487 106.758 46.3907 106.832 46.4651C106.906 46.5396 106.948 46.6404 106.948 46.7456C106.948 46.8507 106.906 46.9516 106.832 47.0261C106.758 47.1005 106.657 47.1425 106.552 47.1427Z" fill="#1A2854"/>
<path d="M112.907 45.8188H109.464C109.219 45.8188 108.983 45.9165 108.809 46.0903C108.635 46.2641 108.538 46.4998 108.538 46.7456C108.538 46.9914 108.635 47.2271 108.809 47.4009C108.983 47.5747 109.219 47.6723 109.464 47.6723H112.907C113.152 47.6723 113.388 47.5747 113.562 47.4009C113.736 47.2271 113.833 46.9914 113.833 46.7456C113.833 46.4998 113.736 46.2641 113.562 46.0903C113.388 45.9165 113.152 45.8188 112.907 45.8188ZM112.907 47.1427H109.464C109.412 47.1429 109.36 47.1327 109.312 47.1128C109.264 47.0929 109.22 47.0637 109.183 47.0268C109.146 46.9899 109.116 46.9461 109.096 46.8978C109.076 46.8496 109.066 46.7978 109.066 46.7456C109.066 46.6933 109.076 46.6416 109.096 46.5933C109.116 46.5451 109.146 46.5013 109.183 46.4644C109.22 46.4275 109.264 46.3982 109.312 46.3783C109.36 46.3584 109.412 46.3483 109.464 46.3484H112.907C113.012 46.3487 113.112 46.3907 113.187 46.4651C113.261 46.5396 113.303 46.6404 113.303 46.7456C113.303 46.8507 113.261 46.9516 113.187 47.0261C113.112 47.1005 113.012 47.1425 112.907 47.1427Z" fill="#1A2854"/>
<path d="M34.2266 40.6089C34.2266 40.6089 30.4648 56.4918 35.0625 56.4918C39.6602 56.4918 50.5275 38.519 50.5275 38.519C50.5275 38.519 61.8127 32.6674 57.215 30.5775C52.6173 28.4877 46.7657 33.9213 46.7657 33.9213L40.0138 43.2955L39.6602 38.519L34.2266 40.6089Z" fill="#A0616A"/>
<path d="M43.004 27.2339L40.4961 24.7261C40.4961 24.7261 35.4805 27.6519 35.0625 30.5777C34.6445 33.5035 32.5547 42.6989 32.5547 42.6989L40.2872 43.3258L42.795 39.5641L43.004 27.2339Z" fill="#CFCCE0"/>
<path d="M161.805 21.2881C161.49 20.3584 157.541 17.1979 159.961 16.6667L161.945 19.3124L171.068 10.1899L171.985 11.1075L161.805 21.2881Z" fill="#1A2854"/>
<path d="M161.805 52.3086C161.49 51.3789 157.541 48.2184 159.961 47.6872L161.945 50.3329L171.068 41.2104L171.985 42.128L161.805 52.3086Z" fill="#1A2854"/>
<path d="M161.805 83.772C161.49 82.8422 157.541 79.6818 159.961 79.1506L161.945 81.7963L171.068 72.6738L171.985 73.5913L161.805 83.772Z" fill="#1A2854"/>
<path d="M189.437 20.3313C190.992 20.3313 192.252 19.071 192.252 17.5162C192.252 15.9615 190.992 14.7012 189.437 14.7012C187.882 14.7012 186.622 15.9615 186.622 17.5162C186.622 19.071 187.882 20.3313 189.437 20.3313Z" fill="#3F3D56"/>
<path d="M245.316 17.2349H199.993V17.7979H245.316V17.2349Z" fill="#3F3D56"/>
<path d="M189.437 51.3518C190.992 51.3518 192.252 50.0915 192.252 48.5367C192.252 46.982 190.992 45.7217 189.437 45.7217C187.882 45.7217 186.622 46.982 186.622 48.5367C186.622 50.0915 187.882 51.3518 189.437 51.3518Z" fill="#3F3D56"/>
<path d="M245.316 48.2549H199.993V48.8179H245.316V48.2549Z" fill="#3F3D56"/>
<path d="M189.437 82.8152C190.992 82.8152 192.252 81.5548 192.252 80.0001C192.252 78.4454 190.992 77.1851 189.437 77.1851C187.882 77.1851 186.622 78.4454 186.622 80.0001C186.622 81.5548 187.882 82.8152 189.437 82.8152Z" fill="#3F3D56"/>
<path d="M245.316 79.7183H199.993V80.2813H245.316V79.7183Z" fill="#3F3D56"/>
<path d="M168.915 87.9667H154.839V73.6099H164.411V74.1729H155.402V87.4037H168.352V80.929H168.915V87.9667Z" fill="#3F3D56"/>
<path d="M168.915 56.4379H154.839V42.0811H164.411V42.6441H155.402V55.8749H168.352V49.4002H168.915V56.4379Z" fill="#3F3D56"/>
<path d="M168.915 24.3461H154.839V9.98926H164.411V10.5523H155.402V23.7831H168.352V17.3084H168.915V24.3461Z" fill="#3F3D56"/>
</g>
<defs>
<clipPath id="clip0">
<rect width="250" height="150.597" fill="white"/>
</clipPath>
</defs>
</svg>
